<?xml version="1.0" encoding="utf-8"?>
<!-- Generator: Adobe Illustrator 27.5.0, SVG Export Plug-In . SVG Version: 6.00 Build 0)  -->
<svg version="1.1" xmlns="http://www.w3.org/2000/svg" xmlns:xlink="http://www.w3.org/1999/xlink" x="0px" y="0px"
	 viewBox="0 0 500 500" style="enable-background:new 0 0 500 500;" xml:space="preserve">
<g id="Floor">
	<ellipse id="Floor_2_" style="fill:#F5F5F5;" cx="243" cy="376.242" rx="204.854" ry="105.799"/>
</g>
<g id="Shadows">
	<ellipse id="Shadow_15_" style="fill:#E6E6E6;" cx="328.91" cy="385.713" rx="68.439" ry="39.513"/>
	<g id="Shadows_2_">
		<path style="fill:#E0E0E0;" d="M100.828,407.823c-1.838,0-3.481-1.361-3.823-3.165l-0.888-4.679
			c-2.081-0.384-4.099-0.881-6.009-1.478c0.028,0.008,0.057,0.017,0.029,0.019c-0.045,0-0.083,0.004-0.109,0.008l-8.247,3.822
			c-0.568,0.262-1.233,0.401-1.92,0.401c-0.845,0-1.675-0.212-2.339-0.595l-8.215-4.743c-1.014-0.585-1.652-1.595-1.708-2.702
			c-0.055-1.107,0.478-2.176,1.428-2.861l4.975-3.579c-0.46-0.611-0.876-1.238-1.243-1.878l-10.473-0.662
			c-1.967-0.127-3.507-1.768-3.507-3.738l0.001-6.108c0-1.973,1.542-3.615,3.509-3.738l10.47-0.663
			c0.368-0.638,0.783-1.265,1.243-1.878l-4.976-3.58c-0.949-0.683-1.483-1.752-1.428-2.86c0.055-1.107,0.694-2.118,1.708-2.702
			l8.214-4.742c0.663-0.385,1.495-0.596,2.34-0.596c0.688,0,1.352,0.139,1.922,0.403l8.245,3.82
			c0.025,0.003,0.142,0.005,0.152,0.005c1.891-0.588,3.885-1.077,5.938-1.456l0.889-4.678c0.342-1.805,1.985-3.166,3.822-3.166
			h12.08c1.838,0,3.482,1.361,3.824,3.165l0.889,4.68c2.083,0.384,4.101,0.881,6.01,1.478c-0.028-0.009-0.057-0.018-0.032-0.02
			c0.044,0,0.082-0.004,0.108-0.008l8.246-3.82c0.569-0.263,1.234-0.403,1.923-0.403c0.843,0,1.673,0.21,2.339,0.594l8.216,4.744
			c1.014,0.585,1.652,1.595,1.708,2.702c0.055,1.107-0.479,2.176-1.428,2.861l-4.975,3.579c0.46,0.612,0.875,1.239,1.243,1.878
			l10.473,0.662c1.966,0.127,3.506,1.768,3.506,3.738v6.109c0,1.97-1.54,3.611-3.509,3.738l-10.47,0.662
			c-0.367,0.638-0.783,1.266-1.244,1.878l4.976,3.58c0.949,0.683,1.483,1.752,1.428,2.859c-0.054,1.106-0.692,2.117-1.707,2.703
			l-8.216,4.743c-0.663,0.383-1.494,0.595-2.339,0.595c-0.687,0-1.351-0.139-1.921-0.403l-8.245-3.82
			c-0.024-0.003-0.142-0.005-0.153-0.005c-1.889,0.587-3.883,1.076-5.938,1.456l-0.888,4.681c-0.345,1.804-1.988,3.165-3.824,3.165
			L100.828,407.823z M94.315,373.223c-2.81,1.622-4.423,3.705-4.423,5.715c0,2.011,1.612,4.094,4.423,5.718
			c3.31,1.91,7.767,2.963,12.552,2.963c4.785,0,9.244-1.053,12.555-2.964c2.811-1.623,4.422-3.707,4.422-5.717
			c0-2.01-1.612-4.093-4.422-5.715c-3.31-1.911-7.769-2.964-12.553-2.964S97.625,371.312,94.315,373.223z"/>
		<path style="fill:#E0E0E0;" d="M196.678,361.614l-3.622-3.81c-0.908,0.048-1.821,0.073-2.717,0.073
			c-0.91,0-1.825-0.025-2.675-0.073l-3.847,4.045c-0.689,0.726-1.747,1.143-2.902,1.143c-0.368,0-0.73-0.043-1.063-0.124
			l-8.867-2.115c-1.101-0.278-1.982-0.978-2.415-1.921c-0.395-0.858-0.379-1.833,0.048-2.689l1.493-2.955
			c-0.846-0.464-1.646-0.955-2.386-1.466c-0.003-0.002-0.007-0.004-0.011-0.006l-8.407,1.416c-0.193,0.033-0.394,0.05-0.599,0.05
			c-1.289,0-2.617-0.695-3.374-1.76l-3.366-4.685c-0.417-0.606-0.643-1.289-0.655-2.029c0.005-1.397,0.906-2.613,2.226-3.021
			l6.575-2.081c-0.006-0.208-0.007-0.415-0.002-0.623l-6.34-2.012c-1.443-0.447-2.426-1.614-2.506-2.987l-0.006-0.088v-0.088
			c0-0.648,0.215-1.292,0.574-1.773l3.665-5.108c0.684-0.947,1.886-1.511,3.215-1.511c0.237,0,0.474,0.019,0.714,0.059l8.282,1.393
			c0.611-0.422,1.267-0.834,1.959-1.227c0.143-0.082,0.29-0.163,0.439-0.243l-1.381-2.737c-0.238-0.459-0.374-0.966-0.396-1.536
			l-0.004-0.371l0.033-0.134c0.17-1.329,1.115-2.404,2.485-2.75l9.166-2.187c0.274-0.067,0.561-0.102,0.853-0.102
			c1.148,0,2.368,0.536,3.178,1.394l3.625,3.811c0.929-0.051,1.861-0.077,2.777-0.077c0.889,0,1.78,0.024,2.616,0.072l3.835-4.034
			c0.691-0.731,1.753-1.15,2.913-1.15c0.365,0,0.725,0.042,1.053,0.123l8.837,2.113c1.609,0.385,2.714,1.685,2.727,3.185
			c0.01,0.466-0.092,0.929-0.327,1.423l-1.492,2.958c0.165,0.091,0.327,0.181,0.486,0.272c0.678,0.39,1.322,0.796,1.88,1.185
			c0.007,0.004,0.016,0.009,0.026,0.013l8.424-1.413c0.187-0.031,0.383-0.048,0.584-0.048c1.272,0,2.594,0.684,3.381,1.762
			l3.324,4.634c0.45,0.622,0.687,1.336,0.687,2.064l0.009,0.265l-0.009,0.04v0.126l-0.056,0.169
			c-0.211,1.13-1.012,2.056-2.161,2.433l-6.583,2.084c0.006,0.207,0.006,0.414,0.001,0.622l6.383,2.018
			c0.855,0.279,1.556,0.808,1.988,1.494l0.068,0.112c0.117,0.203,0.209,0.415,0.276,0.634l0.099,0.202l0.139,2.152l-0.77,0.463
			l-3.574,4.983c-0.687,0.941-1.885,1.504-3.203,1.504c-0.247,0-0.493-0.021-0.719-0.06l-8.277-1.393
			c-0.756,0.519-1.561,1.013-2.409,1.474l1.397,2.77c0.484,0.961,0.509,2.048,0.069,2.982c-0.425,0.904-1.235,1.552-2.196,1.772
			l-9.205,2.203c-0.259,0.06-0.53,0.091-0.806,0.091C198.715,363.008,197.493,362.473,196.678,361.614z M202.494,336.542
			c-1.411-1.44-3.746-2.606-6.576-3.283c-1.773-0.424-3.642-0.64-5.556-0.64c-5.64,0-10.772,1.87-12.767,4.649
			c-0.759,1.061-0.928,2.079-0.517,3.111l0.091,0.225l0.228,0.392l0.008,0.038c0.401,0.649,1.023,1.292,1.831,1.884
			c0.321,0.239,0.682,0.473,1.083,0.701c1.265,0.725,2.772,1.299,4.475,1.706c1.775,0.424,3.645,0.638,5.557,0.638
			c3.766,0,7.426-0.852,10.047-2.342c0.396-0.224,0.763-0.461,1.121-0.733c0.663-0.486,1.203-1.016,1.605-1.576
			c0.869-1.208,0.962-2.383,0.281-3.592c0,0-0.133-0.225-0.168-0.276c-0.072-0.107-0.143-0.214-0.244-0.342
			c-0.07-0.092-0.144-0.181-0.221-0.269L202.494,336.542z"/>
	</g>
</g>
<g id="Plants">
	<g id="Plants_8_">
		<g id="XMLID_725_">
			<g id="XMLID_733_">
				<path id="XMLID_735_" style="fill:#27DEBF;" d="M74.119,361.071c1.179-13.216,1.859-25.443-3.429-44.762
					c-4.438-16.213-17.702-33.233-27.53-33.3c-9.152-0.062-12.017,10.972-4.584,21.547c7.434,10.575,23.839,30.98,23.904,44.79
					l2.304,15.864L74.119,361.071z"/>
				<path id="XMLID_734_" style="opacity:0.2;" d="M74.119,361.071c1.179-13.216,1.859-25.443-3.429-44.762
					c-4.438-16.213-17.702-33.233-27.53-33.3c-9.152-0.062-12.017,10.972-4.584,21.547c7.434,10.575,23.839,30.98,23.904,44.79
					l2.304,15.864L74.119,361.071z"/>
			</g>
			<g id="XMLID_727_">
				<path id="XMLID_730_" style="fill:#FFFFFF;" d="M70.334,357.417c-0.245-0.077-0.418-0.309-0.411-0.577
					c0.911-30.894-14.331-57.849-28.077-66.823c-0.271-0.177-0.347-0.54-0.17-0.811c0.175-0.27,0.534-0.354,0.811-0.17
					c13.971,9.12,29.531,36.522,28.607,67.838c-0.009,0.323-0.279,0.577-0.602,0.568C70.438,357.441,70.384,357.432,70.334,357.417z
					"/>
			</g>
		</g>
		<g id="XMLID_705_">
			<g id="XMLID_719_">
				<path id="XMLID_722_" style="fill:#27DEBF;" d="M61.284,366.853c-0.207-4.686-3.836-13.204-11.074-21.253
					c-8.007-8.904-19.413-14.842-20.981-20.658c-1.883-6.987,4.411-10.165,14.197-7.283c11.762,3.464,23.983,18.154,24.087,46.272
					L61.284,366.853z"/>
			</g>
			<g id="XMLID_708_">
				<path id="XMLID_712_" style="fill:#FFFFFF;" d="M64.288,362.704c-0.213-0.069-0.375-0.257-0.401-0.494
					c-2.72-24.772-18.22-36.939-26.034-39.911c-0.302-0.115-0.454-0.454-0.34-0.756c0.115-0.303,0.441-0.458,0.756-0.339
					c8.642,3.287,24.006,15.595,26.783,40.879c0.035,0.321-0.198,0.611-0.519,0.647C64.448,362.739,64.365,362.729,64.288,362.704z"
					/>
			</g>
		</g>
	</g>
	<g id="Plants_5_">
		<g id="XMLID_700_">
			<g id="XMLID_703_">
				<path id="XMLID_738_" style="fill:#27DEBF;" d="M374.532,379.945c-1.179-13.216-1.859-25.443,3.429-44.762
					c4.438-16.213,17.703-33.233,27.53-33.3c9.152-0.062,12.017,10.972,4.584,21.547c-7.434,10.575-23.839,30.98-23.904,44.79
					l-2.304,15.864L374.532,379.945z"/>
				<path id="XMLID_736_" style="opacity:0.2;" d="M374.532,379.945c-1.179-13.216-1.859-25.443,3.429-44.762
					c4.438-16.213,17.703-33.233,27.53-33.3c9.152-0.062,12.017,10.972,4.584,21.547c-7.434,10.575-23.839,30.98-23.904,44.79
					l-2.304,15.864L374.532,379.945z"/>
			</g>
			<g id="XMLID_701_">
				<path id="XMLID_702_" style="fill:#FFFFFF;" d="M377.692,377.517c0.245-0.077,0.418-0.309,0.411-0.577
					c-0.911-30.894,14.957-59.075,28.702-68.049c0.271-0.177,0.347-0.541,0.17-0.811c-0.175-0.27-0.534-0.354-0.811-0.17
					c-13.971,9.12-30.156,37.748-29.233,69.065c0.009,0.323,0.279,0.577,0.602,0.568
					C377.589,377.541,377.642,377.532,377.692,377.517z"/>
			</g>
		</g>
		<g id="XMLID_667_">
			<g id="XMLID_687_">
				<path id="XMLID_698_" style="fill:#27DEBF;" d="M387.367,385.726c0.207-4.686,3.836-13.204,11.074-21.253
					c8.007-8.904,19.413-14.842,20.981-20.658c1.883-6.987-4.411-10.165-14.197-7.283c-11.762,3.464-23.983,18.154-24.087,46.272
					L387.367,385.726z"/>
			</g>
			<g id="XMLID_671_">
				<path id="XMLID_681_" style="fill:#FFFFFF;" d="M384.363,381.578c0.212-0.069,0.375-0.257,0.401-0.494
					c2.72-24.772,18.22-36.939,26.034-39.911c0.302-0.115,0.454-0.454,0.34-0.756c-0.115-0.303-0.441-0.458-0.756-0.34
					c-8.642,3.287-24.006,15.595-26.784,40.879c-0.035,0.321,0.198,0.611,0.519,0.647
					C384.203,381.613,384.286,381.603,384.363,381.578z"/>
			</g>
		</g>
	</g>
</g>
<g id="Gears">
	<g id="Gears_2_">
		<g>
			<path style="fill:#37474F;" d="M61.41,367.164l0.022,11.4c0,0.566,0.458,1.054,1.023,1.091l7.793,0.493l-0.001,10.983l0.002,0
				c0.002,0.208,0.129,0.412,0.382,0.558l8.216,4.744c0.283,0.163,0.662,0.219,1.041,0.212l0,0.016
				c0.281-0.004,0.558-0.045,0.778-0.147l8.328-3.859c0.513-0.237,1.364-0.283,1.905-0.114c2.075,0.649,4.243,1.16,6.466,1.537
				c0.558,0.095,1.098,0.613,1.204,1.17l1.042,5.488c0.054,0.284,0.224,0.535,0.451,0.718l0,0.003
				c0.218,0.175,0.489,0.286,0.766,0.286l12.08,0c0.253,0,0.484-0.111,0.689-0.261c0.062-0.044,0.103-0.086,0.156-0.14
				c0.054-0.054,0.126-0.09,0.17-0.152v-0.125c0.066-0.113,0.177-0.201,0.201-0.33l1.042-5.488c0.105-0.556,0.645-1.075,1.203-1.169
				c2.223-0.377,4.391-0.889,6.466-1.537c0.54-0.169,1.392-0.124,1.905,0.114l8.329,3.858c0.141,0.065,0.33,0.06,0.503,0.085v0.055
				c0.096,0.012,0.194-0.006,0.292-0.006c0.078,0,0.138,0.003,0.216-0.004c0.29-0.024,0.568-0.082,0.786-0.206
				c0.005-0.003,0.014-0.003,0.02-0.005l8.216-4.744c0.136-0.078,0.228-0.175,0.292-0.278c0.003-0.005,0.016-0.015,0.016-0.015
				c0.042-0.073,0.058-0.145,0.064-0.218c0.001-0.012,0.011-0.022,0.012-0.034l0.001,0l0.001-2.616l0.003-1.947l-0.002-0.111
				l0-0.011h0l-0.004-6.306l0-0.002l7.65-0.486l0.143-0.009c0.077-0.005,0.125-0.074,0.197-0.094
				c0.191-0.055,0.387-0.108,0.521-0.249c0.098-0.103,0.108-0.253,0.161-0.387c0.047-0.118,0.142-0.213,0.144-0.345v-0.012
				l0.001-0.004l0-6.108l-0.001-0.004l0.002-4.283c0-0.002,0.001-0.003,0.001-0.005l0-6.108c0-0.566-0.458-1.054-1.023-1.09
				l-7.799-0.493l0.007-10.969c-0.001,0.005-0.004,0.01-0.005,0.015c0.009-0.218-0.115-0.433-0.38-0.585l-8.216-4.744
				c-0.491-0.283-1.305-0.32-1.818-0.082l-8.328,3.858c-0.514,0.238-1.365,0.283-1.905,0.114c-2.075-0.649-4.243-1.16-6.466-1.537
				c-0.558-0.095-1.098-0.613-1.204-1.169l-1.042-5.488c-0.106-0.556-0.65-1.007-1.216-1.007l-12.08,0
				c-0.566,0-1.111,0.451-1.216,1.007l-1.042,5.488c-0.106,0.556-0.646,1.075-1.204,1.169c-2.222,0.377-4.39,0.888-6.464,1.537
				c-0.54,0.169-1.392,0.124-1.906-0.113l-8.328-3.858c-0.514-0.238-1.328-0.202-1.818,0.081l-8.216,4.743
				c-0.269,0.156-0.393,0.376-0.378,0.598l-0.006-0.003l-0.002,10.946l-7.79,0.493c-0.565,0.036-1.023,0.524-1.023,1.09l0,4.893
				C61.418,367.02,61.41,367.091,61.41,367.164z M92.987,371.042c7.666-4.426,20.094-4.426,27.76,0
				c0.58,0.335,1.115,0.677,1.613,1.025c-0.495,0.366-1.028,0.72-1.611,1.057c-7.666,4.426-20.095,4.426-27.76,0
				c-0.581-0.335-1.112-0.688-1.605-1.053C91.873,371.723,92.405,371.378,92.987,371.042z"/>
			<path style="fill:#263238;" d="M61.407,367.165l0.022,11.4c0,0.566,0.461,1.054,1.027,1.088l7.792,0.494v10.982
				c0.006,0.211,0.128,0.411,0.383,0.56l8.219,4.739c0.277,0.166,0.66,0.222,1.038,0.216v0.017c0.283-0.006,0.555-0.044,0.777-0.15
				l8.33-3.857c0.217-0.1,0.5-0.161,0.783-0.189v-0.006c0.394-0.044,0.81-0.016,1.121,0.078c2.076,0.649,4.245,1.16,6.465,1.537
				c0.177,0.033,0.35,0.105,0.51,0.211v0.061c0.339,0.228,0.627,0.527,0.694,0.899l1.043,5.488c0.055,0.283,0.222,0.533,0.45,0.716
				v0.006c0.216,0.178,0.488,0.283,0.766,0.283l12.081,0.005c0.078-0.005,0.15-0.017,0.222-0.033
				c0.316-0.067,0.605-0.255,0.794-0.522v-0.128c0.066-0.111,0.177-0.2,0.2-0.327l1.043-5.488c0.056-0.3,0.244-0.572,0.488-0.788
				v-0.017c0.205-0.183,0.461-0.322,0.716-0.366c2.22-0.377,4.39-0.888,6.465-1.537c0.35-0.105,0.832-0.128,1.271-0.061v0.033
				c0.222,0.039,0.461,0.061,0.633,0.144l8.33,3.857c0.139,0.066,0.327,0.061,0.505,0.083v0.056h0.005
				c0.45,0.055,0.954-0.017,1.299-0.216c0,0,0.006,0,0.011-0.006l8.213-4.739c0.072-0.044,0.128-0.089,0.178-0.133
				c0.056-0.056,0.1-0.105,0.133-0.161c0.044-0.083,0.067-0.161,0.072-0.244c0,0,0-0.006,0-0.011l0.006-2.614v-2.07l-0.006-6.304
				l1.426-0.094l6.227-0.394l0.139-0.011c0.006,0,0.006,0,0.006,0c0.555-0.039,1.01-0.51,1.021-1.071v-10.417
				c0,0.566-0.455,1.054-1.021,1.088l-10.949,0.694c-0.566,0.039-1.21,0.488-1.482,0.982c-0.599,1.104-1.371,2.186-2.325,3.23
				c-0.383,0.416-0.339,1.004,0.122,1.332l6.51,4.684c0.461,0.333,0.438,0.832-0.056,1.116l-8.213,4.745
				c-0.488,0.283-1.304,0.316-1.82,0.078l-8.324-3.857c-0.516-0.238-1.365-0.283-1.909-0.111c-2.076,0.644-4.24,1.16-6.465,1.537
				c-0.561,0.094-1.099,0.611-1.204,1.165l-1.043,5.488c-0.105,0.555-0.649,1.01-1.215,1.01h-12.081c-0.566,0-1.11-0.455-1.215-1.01
				l-1.043-5.488c-0.105-0.555-0.644-1.071-1.199-1.165c-2.225-0.377-4.395-0.894-6.471-1.543c-0.538-0.167-1.387-0.122-1.904,0.116
				l-8.33,3.857c-0.511,0.239-1.326,0.205-1.815-0.078l-8.219-4.745c-0.488-0.283-0.511-0.782-0.056-1.11l6.515-4.689
				c0.455-0.328,0.499-0.916,0.117-1.338c-0.949-1.038-1.72-2.12-2.325-3.224c-0.266-0.494-0.91-0.944-1.476-0.982l-10.949-0.688
				c-0.566-0.039-1.021-0.527-1.021-1.093v-1.221C61.418,367.016,61.407,367.088,61.407,367.165z"/>
			<path style="fill:#263238;" d="M70.248,349.529v10.944l3.158-0.2c0.566-0.033,1.21-0.483,1.476-0.982
				c0.605-1.104,1.376-2.186,2.325-3.224c0.383-0.416,0.344-1.004-0.117-1.337l-6.515-4.684c-0.2-0.15-0.311-0.327-0.322-0.51
				L70.248,349.529z"/>
			<path style="fill:#263238;" d="M136.525,356.066c0.954,1.043,1.726,2.12,2.325,3.224c0.272,0.499,0.916,0.949,1.482,0.982
				l3.147,0.2l0.011-10.966c-0.006,0.189-0.117,0.383-0.333,0.538l-6.51,4.684C136.187,355.062,136.148,355.65,136.525,356.066z"/>
			<path id="XMLID_652_" style="fill:#455A64;" d="M133.07,344.108l-8.328,3.858c-0.514,0.238-1.364,0.283-1.905,0.114
				c-2.075-0.649-4.243-1.16-6.466-1.537c-0.558-0.095-1.098-0.613-1.204-1.169l-1.042-5.488c-0.106-0.556-0.65-1.007-1.216-1.007
				l-12.08,0c-0.566,0-1.111,0.451-1.216,1.007l-1.042,5.488c-0.106,0.556-0.646,1.075-1.204,1.169
				c-2.222,0.377-4.39,0.888-6.464,1.537c-0.541,0.169-1.392,0.125-1.906-0.113l-8.328-3.858c-0.514-0.238-1.328-0.201-1.818,0.082
				l-8.216,4.743c-0.49,0.283-0.515,0.781-0.056,1.112l6.511,4.685c0.459,0.331,0.503,0.918,0.121,1.336
				c-0.951,1.04-1.725,2.12-2.325,3.225c-0.27,0.497-0.914,0.947-1.479,0.983l-10.948,0.693c-0.565,0.036-1.024,0.524-1.023,1.09
				l0,6.108c0,0.566,0.458,1.054,1.023,1.09l10.948,0.693c0.565,0.036,1.209,0.485,1.479,0.982c0.6,1.105,1.374,2.184,2.325,3.224
				c0.382,0.418,0.339,1.006-0.121,1.337l-6.511,4.685c-0.46,0.331-0.435,0.828,0.056,1.111l8.216,4.743
				c0.49,0.283,1.304,0.32,1.818,0.082l8.328-3.858c0.514-0.238,1.365-0.283,1.905-0.114c2.075,0.649,4.243,1.16,6.466,1.538
				c0.558,0.095,1.098,0.613,1.204,1.169l1.042,5.488c0.106,0.556,0.65,1.007,1.216,1.007l12.081,0c0.566,0,1.111-0.451,1.216-1.007
				l1.042-5.488c0.105-0.556,0.645-1.074,1.203-1.169c2.223-0.377,4.391-0.889,6.466-1.537c0.54-0.169,1.392-0.125,1.906,0.113
				l8.328,3.858c0.514,0.238,1.328,0.202,1.818-0.082l8.216-4.743c0.49-0.283,0.515-0.781,0.056-1.111l-6.511-4.685
				c-0.46-0.331-0.503-0.918-0.121-1.336c0.951-1.04,1.725-2.12,2.325-3.225c0.27-0.497,0.914-0.947,1.479-0.983l10.949-0.693
				c0.565-0.036,1.023-0.524,1.023-1.09v-6.108c0-0.566-0.458-1.054-1.023-1.09l-10.949-0.693c-0.565-0.036-1.209-0.485-1.479-0.982
				c-0.6-1.105-1.374-2.185-2.325-3.225c-0.382-0.418-0.339-1.006,0.121-1.337l6.511-4.685c0.46-0.331,0.435-0.828-0.056-1.111
				l-8.216-4.744C134.397,343.907,133.583,343.87,133.07,344.108z M120.748,357.097c7.665,4.426,7.665,11.601,0,16.027
				c-7.666,4.426-20.095,4.426-27.76,0c-7.666-4.426-7.666-11.602,0-16.028C100.654,352.672,113.082,352.672,120.748,357.097z"/>
			<path style="fill:#37474F;" d="M143.488,380.724c-0.001-0.194-0.111-0.391-0.331-0.55l-3.277-2.358v-7.76
				c0.151-0.06,0.304-0.1,0.453-0.11l10.949-0.694c0.566-0.033,1.021-0.522,1.021-1.088v10.417
				c-0.011,0.561-0.466,1.032-1.021,1.071c0,0,0,0-0.006,0l-0.139,0.011l-6.227,0.394l-1.426,0.094
				C143.484,380.152,143.489,380.935,143.488,380.724z"/>
			<path style="fill:#37474F;" d="M124.114,382.087c0.23,0.035,0.452,0.086,0.63,0.168l8.324,3.857
				c0.298,0.138,0.692,0.174,1.069,0.135v10.403c-0.186,0.02-0.377,0.023-0.559,0.001h-0.005v-0.056
				c-0.178-0.022-0.366-0.017-0.505-0.083l-8.33-3.857c-0.17-0.082-0.405-0.105-0.624-0.143V382.087z"/>
			<path style="fill:#37474F;" d="M113.967,390.726c0.075-0.121,0.128-0.253,0.155-0.392l1.043-5.488
				c0.027-0.144,0.085-0.285,0.163-0.417v10.412c-0.078,0.127-0.137,0.263-0.163,0.406l-1.043,5.488
				c-0.018,0.102-0.092,0.18-0.155,0.263V390.726z"/>
			<path style="opacity:0.15;" d="M98.407,384.434c0.077,0.131,0.133,0.27,0.16,0.412l1.043,5.488
				c0.027,0.14,0.082,0.274,0.158,0.396v10.395c-0.076-0.119-0.131-0.251-0.158-0.391l-1.043-5.488
				c-0.024-0.135-0.085-0.258-0.16-0.374V384.434z"/>
			<path style="opacity:0.15;" d="M79.598,386.247c0.377,0.04,0.771,0.003,1.066-0.135l8.33-3.857
				c0.177-0.082,0.398-0.132,0.627-0.168v10.405c-0.228,0.033-0.451,0.082-0.627,0.164l-8.33,3.857
				c-0.222,0.105-0.494,0.144-0.777,0.15v-0.017c-0.097,0.001-0.194-0.001-0.29-0.009V386.247z"/>
			<path style="opacity:0.15;" d="M62.456,369.258l10.949,0.688c0.148,0.01,0.301,0.05,0.452,0.11v7.761l-3.283,2.362
				c-0.219,0.158-0.327,0.355-0.327,0.549c0.001,0.209-0.001-0.581-0.001-0.581l-7.792-0.494c-0.566-0.033-1.027-0.522-1.027-1.088
				l-0.022-11.4c0-0.078,0.011-0.15,0.028-0.222v1.221C61.435,368.73,61.89,369.219,62.456,369.258z"/>
		</g>
		<g>
			<path style="fill:#37474F;" d="M226.805,330.948c-0.001-0.013-0.001-0.013-0.001-0.013l-0.003-0.005l0,0
				c-0.005-0.075-0.024-0.142-0.06-0.205l-0.003-0.005c0.004-3.749,0.009-10.252,0.007-10.66c0.002-0.008-0.001-0.013,0.001-0.02
				c0.001-0.156-0.058-0.336-0.184-0.51l-3.33-4.642c-0.313-0.43-0.927-0.718-1.371-0.643l-8.702,1.46
				c-0.449,0.077-1.183-0.148-1.664-0.475c-0.542-0.375-1.123-0.741-1.726-1.088l0.01-6.921l-0.007,0.01
				c0.008-0.278-0.262-0.544-0.691-0.646l-8.836-2.113c-0.522-0.128-1.164-0.003-1.422,0.269l-4.225,4.446
				c-0.263,0.275-0.889,0.462-1.387,0.431c-1.932-0.118-3.861-0.108-5.754,0.01c-0.477,0.029-1.167-0.267-1.552-0.675l-3.783-3.978
				c-0.385-0.408-1.044-0.651-1.476-0.544l-9.183,2.191c-0.3,0.076-0.475,0.313-0.475,0.606c-0.002,0.007-0.001,0.02-0.001,0.033
				c0,0.383-0.007,3.666-0.007,6.861c-0.719,0.409-1.403,0.843-2.046,1.305c-0.319,0.223-0.99,0.344-1.514,0.257l-8.43-1.419
				c-0.524-0.087-1.123,0.09-1.34,0.39l-3.66,5.1c-0.051,0.069-0.077,0.148-0.077,0.226c0.001,0.012,0.001,0.025,0.002,0.038
				c-0.001,0.774-0.021,13.168-0.021,13.246c0.002,0.07,0.031,0.144,0.071,0.212c0,3.812-0.01,6.544-0.015,6.703
				c-0.003,0.164,0.057,0.357,0.189,0.54l3.329,4.643c0.313,0.43,0.928,0.718,1.372,0.643l8.7-1.464
				c0.452-0.072,1.183,0.148,1.664,0.475c0.544,0.38,1.123,0.741,1.728,1.093l-0.007,6.894c-0.018,0.283,0.258,0.559,0.695,0.664
				l8.829,2.11c0.529,0.13,1.167,0.008,1.43-0.267l4.225-4.446c0.263-0.275,0.886-0.467,1.387-0.431
				c1.929,0.113,3.861,0.108,5.754-0.01c0.477-0.029,1.167,0.267,1.549,0.67l3.786,3.983c0.382,0.403,1.044,0.651,1.476,0.544
				l9.18-2.196c0.268-0.064,0.44-0.261,0.468-0.504c0.024-0.15,0.014-6.995,0.014-6.995c0.719-0.408,1.403-0.843,2.048-1.299
				c0.317-0.228,0.987-0.349,1.511-0.262l8.432,1.424c0.521,0.082,1.123-0.09,1.337-0.395l3.66-5.1
				c0.053-0.076,0.079-0.156,0.079-0.234c0.003-0.242,0.015-8.84,0.013-9.305C226.805,330.948,226.805,330.948,226.805,330.948z
				 M177.649,331.217c0.401-0.284,0.838-0.561,1.311-0.834c6.312-3.644,16.533-3.643,22.844-0.001
				c0.459,0.267,0.892,0.544,1.284,0.817c-0.429,0.326-0.892,0.625-1.387,0.905c-4.483,2.549-11.34,3.449-17.523,1.974
				c-1.996-0.477-3.733-1.157-5.178-1.985C178.517,331.82,178.061,331.525,177.649,331.217z"/>
			<path style="fill:#263238;" d="M173.009,313.08c-0.703,0.324-1.382,0.673-2.031,1.039c0-3.197,0.006-6.478,0.006-6.862
				c0.006,0.108,0.036,0.234,0.102,0.354l2.199,4.357C173.508,312.413,173.382,312.906,173.009,313.08z"/>
			<path style="opacity:0.15;" d="M162.884,323.981c-0.162,0.967-0.156,1.923-0.012,2.878c0.066,0.427-0.18,0.883-0.589,1.016
				l-7.944,2.512c-0.24,0.078-0.373,0.27-0.373,0.505c0.006,0.162,0,2.584,0,2.584c-0.036-0.06-0.06-0.126-0.066-0.192
				c0.006-4.513,0.018-12.054,0.018-12.715v-0.553c0.012,0.24,0.252,0.475,0.637,0.595l7.505,2.38
				C162.595,323.158,162.944,323.596,162.884,323.981z"/>
			<path style="opacity:0.15;" d="M167.859,335.212v9.325c-0.114-0.006-0.222-0.012-0.318,0.006l-8.701,1.46
				c-0.138,0.024-0.288,0.006-0.445-0.036v-9.307c0.162,0.042,0.318,0.054,0.463,0.03l8.701-1.466
				C167.649,335.206,167.751,335.206,167.859,335.212z"/>
			<path style="fill:#263238;" d="M170.93,346.105c-0.601-0.349-1.184-0.709-1.725-1.088c-0.385-0.258-0.913-0.445-1.346-0.481
				v-9.325c0.433,0.03,0.98,0.228,1.358,0.493c1.064,0.727,2.235,1.406,3.527,2.025c0.517,0.252,0.805,0.703,0.637,1.046
				l-2.392,4.735c-0.033,0.065-0.048,0.132-0.048,0.197C170.942,343.982,170.93,346.105,170.93,346.105z"/>
			<path style="opacity:0.15;" d="M186.638,341.443v9.319c-0.216,0.072-0.415,0.174-0.535,0.3l-4.224,4.447
				c-0.156,0.162-0.451,0.27-0.769,0.306v-9.319c0.336-0.03,0.631-0.132,0.787-0.3l4.23-4.453
				C186.241,341.623,186.421,341.521,186.638,341.443z"/>
			<path style="fill:#263238;" d="M193.801,341.389v9.319c-0.198-0.054-0.391-0.096-0.553-0.084
				c-1.893,0.114-3.828,0.12-5.757,0.006c-0.276-0.018-0.583,0.036-0.853,0.132v-9.319c0.27-0.096,0.589-0.15,0.871-0.132
				c1.935,0.12,3.858,0.108,5.751-0.006C193.422,341.299,193.608,341.323,193.801,341.389z"/>
			<path style="opacity:0.15;" d="M199.425,346.455v9.313c-0.306-0.09-0.625-0.258-0.841-0.493l-3.786-3.984
				c-0.252-0.264-0.631-0.469-0.997-0.583v-9.319c0.372,0.108,0.757,0.324,1.016,0.589l3.786,3.978
				C198.818,346.184,199.124,346.365,199.425,346.455z"/>
			<path style="fill:#37474F;" d="M209.725,343.817v2.306c-0.006,0-0.006,0-0.006,0s0.006,1.13,0.006,2.482v1.178
				c0,1.652-0.006,3.263-0.018,3.335c-0.03,0.24-0.198,0.439-0.469,0.505l-9.182,2.193c-0.18,0.048-0.403,0.018-0.631-0.048v-9.313
				c0.234,0.072,0.463,0.09,0.649,0.048l9.182-2.199C209.526,344.243,209.689,344.057,209.725,343.817z"/>
			<path style="opacity:0.15;" d="M212.687,335.23v9.319c-0.367,0.036-0.715,0.126-0.919,0.276
				c-0.643,0.457-1.328,0.889-2.049,1.298c0,0,0.014-2.129,0.011-2.42c-0.001-0.121-0.032-0.25-0.095-0.379l-2.205-4.368
				c-0.223-0.439-0.096-0.931,0.276-1.106c1.484-0.685,2.86-1.472,4.08-2.337C211.984,335.362,212.327,335.26,212.687,335.23z"/>
			<path style="fill:#37474F;" d="M226.803,330.951c0,0.463-0.012,9.061-0.012,9.307c-0.006,0.078-0.03,0.156-0.084,0.234
				l-3.66,5.096c-0.114,0.168-0.355,0.295-0.625,0.361v-9.307c0.282-0.066,0.523-0.198,0.649-0.367l3.654-5.102
				C226.778,331.108,226.803,331.03,226.803,330.951z"/>
			<g id="XMLID_394_">
				<path id="XMLID_422_" style="fill:#455A64;" d="M170.987,307.227c-0.002,0.008-0.001,0.02-0.001,0.033
					c0.004,0.108,0.036,0.232,0.099,0.352l2.199,4.36c0.223,0.443,0.099,0.936-0.276,1.107c-0.701,0.327-1.383,0.675-2.029,1.041
					c-0.719,0.409-1.403,0.843-2.046,1.305c-0.319,0.223-0.99,0.344-1.514,0.257l-8.43-1.419c-0.524-0.087-1.123,0.09-1.34,0.39
					l-3.66,5.1c-0.051,0.069-0.077,0.148-0.077,0.226c0.001,0.013,0.001,0.025,0.002,0.038c0.014,0.238,0.253,0.471,0.64,0.591
					l7.505,2.381c0.531,0.167,0.883,0.607,0.821,0.994c-0.159,0.962-0.157,1.922-0.009,2.875c0.063,0.425-0.179,0.882-0.589,1.016
					l-7.944,2.515c-0.242,0.075-0.372,0.267-0.373,0.501c0.002,0.161,0.066,0.339,0.187,0.515l3.334,4.64
					c0.308,0.433,0.923,0.721,1.372,0.643l8.7-1.464c0.449-0.077,1.183,0.148,1.659,0.478c1.059,0.732,2.236,1.41,3.528,2.028
					c0.516,0.254,0.803,0.705,0.634,1.043l-2.394,4.739c-0.169,0.338,0.123,0.708,0.648,0.841l8.834,2.107
					c0.529,0.129,1.167,0.008,1.425-0.264l4.23-4.449c0.258-0.273,0.882-0.464,1.385-0.436c1.932,0.119,3.857,0.111,5.752-0.003
					c0.477-0.029,1.172,0.265,1.554,0.668l3.786,3.983c0.382,0.403,1.041,0.645,1.471,0.546l9.185-2.199
					c0.43-0.099,0.595-0.544,0.374-0.982l-2.202-4.365c-0.223-0.443-0.096-0.931,0.276-1.108c1.486-0.689,2.857-1.474,4.077-2.341
					c0.321-0.231,0.992-0.352,1.511-0.262l8.434,1.416c0.519,0.09,1.118-0.087,1.34-0.39l3.655-5.097
					c0.056-0.072,0.077-0.148,0.077-0.226c0.005-0.003,0.005-0.003,0.005-0.003c-0.001-0.013-0.004-0.018-0.004-0.018
					c-0.005-0.075-0.024-0.142-0.06-0.205l-0.003-0.005c-0.096-0.166-0.296-0.31-0.576-0.401l-7.507-2.374
					c-0.527-0.17-0.883-0.607-0.82-0.994c0.156-0.967,0.154-1.927,0.009-2.875c-0.066-0.429,0.181-0.89,0.589-1.015l7.949-2.518
					c0.235-0.077,0.357-0.258,0.364-0.483c0.002-0.008-0.001-0.012,0.001-0.02c0.001-0.156-0.058-0.336-0.184-0.51l-3.33-4.642
					c-0.313-0.43-0.928-0.718-1.372-0.643l-8.703,1.46c-0.449,0.077-1.183-0.148-1.664-0.475c-0.542-0.375-1.123-0.741-1.726-1.088
					c-0.571-0.326-1.174-0.64-1.798-0.943c-0.519-0.246-0.808-0.702-0.637-1.035l2.396-4.747c0.029-0.062,0.046-0.124,0.042-0.187
					c0.008-0.278-0.262-0.544-0.691-0.646l-8.836-2.113c-0.522-0.128-1.164-0.003-1.423,0.269l-4.225,4.446
					c-0.263,0.275-0.889,0.462-1.387,0.431c-1.932-0.118-3.861-0.108-5.754,0.01c-0.477,0.029-1.167-0.267-1.552-0.675l-3.783-3.978
					c-0.385-0.408-1.044-0.65-1.476-0.544l-9.183,2.191C171.161,306.697,170.987,306.934,170.987,307.227z M204.389,320.857
					c0.077,0.078,0.153,0.152,0.226,0.233c0.059,0.057,0.105,0.114,0.156,0.169c0.114,0.129,0.222,0.261,0.326,0.396
					c0.124,0.158,0.235,0.319,0.343,0.48c0.068,0.102,0.132,0.205,0.193,0.309c0.029,0.049,0.058,0.099,0.086,0.148
					c1.145,2.035,1.091,4.308-0.441,6.44c-0.572,0.798-1.314,1.525-2.19,2.167c-0.429,0.326-0.892,0.626-1.387,0.905
					c-4.483,2.549-11.34,3.449-17.523,1.974c-1.996-0.477-3.733-1.157-5.178-1.984c-0.483-0.273-0.939-0.568-1.35-0.876
					c-1.249-0.915-2.181-1.955-2.756-3.065c-0.008-0.014-0.014-0.024-0.018-0.042c-0.034-0.059-0.063-0.12-0.091-0.181
					c-0.032-0.066-0.061-0.127-0.085-0.192c-0.032-0.066-0.063-0.132-0.085-0.204c-0.727-1.821-0.506-3.779,0.823-5.637
					c3.416-4.758,12.864-7.018,21.1-5.046C199.988,317.677,202.682,319.116,204.389,320.857z"/>
			</g>
		</g>
	</g>
</g>
<g id="_x35_04_Error">
	<g>
		<g>
			<g>
				<path style="fill:#455A64;" d="M233.773,98.33c-0.082-0.078-0.167-0.143-0.254-0.193c-0.357-0.204-7.896-4.578-7.896-4.578
					V56.188c0-0.876-0.208-1.511-0.622-1.912c-0.082-0.079-0.167-0.143-0.256-0.194c-0.357-0.204-10.199-5.889-10.289-5.94
					c-0.355-0.2-0.76-0.17-1.213,0.091l-11.721,6.767c-0.673,0.389-1.203,0.835-1.592,1.338c-0.388,0.504-0.815,1.327-1.281,2.472
					l-23.209,58.454c-0.673,1.745-1.009,3.651-1.009,5.722v12.667c0,0.878,0.207,1.515,0.621,1.913
					c0.093,0.09,0.191,0.162,0.292,0.215c0.347,0.182,10.142,5.854,10.221,5.902c0.362,0.22,0.777,0.195,1.245-0.076l14.168-8.18
					v0.316c0,0.878,0.205,1.515,0.621,1.913c0.07,0.068,0.143,0.126,0.217,0.172c0.365,0.229,10.262,5.93,10.366,5.984
					c0.345,0.177,0.737,0.138,1.174-0.115l10.169-5.871c0.569-0.328,1.06-0.929,1.474-1.806c0.415-0.877,0.622-1.753,0.622-2.63
					v-12.189l6.676-3.854c0.569-0.329,1.06-0.929,1.474-1.807c0.414-0.876,0.62-1.752,0.62-2.63v-12.668
					C234.394,99.367,234.187,98.73,233.773,98.33z"/>
				<polygon style="fill:#37474F;" points="211.651,110.147 211.651,88.157 200.317,116.69 				"/>
				<path style="fill:#37474F;" d="M211.263,141.682v-12.189l-10.283,5.937v0.316c0,0.878,0.205,1.515,0.62,1.913
					c0.07,0.068,0.143,0.126,0.217,0.172c0.365,0.229,10.262,5.93,10.366,5.984c0.005,0.002,0.01,0.003,0.014,0.005
					c-0.109-0.054-0.214-0.127-0.314-0.224C211.469,143.197,211.263,142.559,211.263,141.682z"/>
				<path style="fill:#263238;" d="M185.335,143.502c0.034,0.034,0.076,0.068,0.11,0.11c-1.148-0.658-9.78-5.654-10.101-5.831
					c-0.101-0.051-0.194-0.127-0.287-0.211c-0.422-0.397-0.625-1.038-0.625-1.915v-12.666c0-1.097,0.101-2.135,0.287-3.139
					l10.278,5.941v0.008c-0.186,0.996-0.278,2.034-0.278,3.122v12.674C184.719,142.473,184.922,143.106,185.335,143.502z"/>
				<path style="fill:#37474F;" d="M210.895,61.574c-0.262,0.219-0.49,0.456-0.684,0.7c-0.388,0.506-0.81,1.325-1.274,2.472
					L185.723,123.2c-0.321,0.827-0.565,1.688-0.726,2.591l-10.278-5.941c0.169-0.894,0.405-1.764,0.726-2.582l23.205-58.453
					c0.464-1.148,0.895-1.974,1.283-2.472c0.186-0.253,0.413-0.49,0.675-0.709L210.895,61.574z"/>
				<path style="fill:#27DEBF;" d="M213.358,143.699c-0.569,0.329-1.061,0.296-1.474-0.105c-0.415-0.397-0.621-1.035-0.621-1.913
					v-12.189l-24.451,14.117c-0.57,0.33-1.062,0.296-1.475-0.104c-0.415-0.398-0.621-1.035-0.621-1.913v-12.667
					c0-2.072,0.336-3.978,1.01-5.722l23.209-58.454c0.466-1.145,0.893-1.968,1.281-2.472c0.389-0.503,0.919-0.949,1.592-1.338
					l11.721-6.767c0.569-0.328,1.06-0.292,1.474,0.105c0.414,0.4,0.622,1.036,0.622,1.912v45.892l6.676-3.854
					c0.569-0.329,1.06-0.293,1.474,0.105c0.414,0.4,0.621,1.037,0.621,1.912v12.668c0,0.878-0.207,1.754-0.621,2.63
					c-0.415,0.879-0.906,1.478-1.474,1.807l-6.676,3.854v12.189c0,0.878-0.208,1.754-0.622,2.63
					c-0.415,0.878-0.906,1.478-1.474,1.806L213.358,143.699z M211.651,110.147V88.157l-11.333,28.534L211.651,110.147z"/>
			</g>
			<g id="Clock_2_">
				<path id="XMLID_421_" style="fill:#455A64;" d="M171.264,106.868l0.001-0.002l-0.051-0.029
					c-0.002-0.001-0.004-0.002-0.005-0.003l-12.087-7.024c-0.004-0.002-0.008-0.005-0.012-0.007l-0.071-0.041l-0.002,0.003
					c-5.708-3.251-13.57-2.759-22.25,2.253c-17.44,10.069-31.578,34.557-31.578,54.695c0,10.038,3.514,17.098,9.197,20.411
					l-0.001,0.002l0.05,0.029c0.002,0.001,0.004,0.002,0.006,0.004l12.089,7.026c0.002,0.001,0.004,0.002,0.005,0.003l0.06,0.035
					l0.001-0.002c5.71,3.26,13.577,2.771,22.265-2.245c17.44-10.069,31.578-34.557,31.578-54.695
					C180.461,117.241,176.947,110.181,171.264,106.868z"/>
				<path id="XMLID_419_" style="fill:#37474F;" d="M126.136,183.934l-11.67-6.777c-0.009,0-0.009,0-0.009,0l-0.055-0.037
					c-5.68-3.32-9.192-10.381-9.192-20.404c0-8.981,2.817-18.822,7.472-27.858l12.091,7.024c-4.664,9.036-7.472,18.877-7.472,27.858
					C117.301,173.563,120.667,180.532,126.136,183.934z"/>
				
					<ellipse id="XMLID_418_" transform="matrix(0.5 -0.866 0.866 0.5 -51.5743 201.6922)" style="fill:#27DEBF;" cx="148.883" cy="145.511" rx="44.658" ry="25.784"/>
				<path id="XMLID_416_" style="fill:#FAFAFA;" d="M135.273,178.682c-9.644,0-10.685-10.894-10.685-15.578
					c0-17.14,12.541-38.861,27.384-47.43c3.778-2.182,7.416-3.335,10.52-3.335c9.645,0,10.686,10.894,10.686,15.578
					c0,17.14-12.541,38.86-27.384,47.43C142.016,177.529,138.377,178.682,135.273,178.682L135.273,178.682z"/>
				<g id="XMLID_405_">
					<g id="XMLID_412_">
						<path id="XMLID_413_" style="fill:#27DEBF;" d="M141.883,166.086c-0.05,0-0.101-0.008-0.151-0.026
							c-0.238-0.083-0.364-0.344-0.28-0.582l7-19.984c0.084-0.238,0.345-0.365,0.582-0.28c0.238,0.083,0.364,0.344,0.28,0.582
							l-7,19.984C142.249,165.968,142.072,166.086,141.883,166.086z"/>
					</g>
					<g id="XMLID_410_">
						<path id="XMLID_411_" style="fill:#37474F;" d="M159.371,151.551c-0.181,0-0.366-0.036-0.544-0.113l-11.316-4.894v-20.523
							c0-0.757,0.614-1.372,1.372-1.372c0.757,0,1.372,0.614,1.372,1.372v18.72l9.662,4.177c0.695,0.301,1.016,1.108,0.715,1.804
							C160.407,151.242,159.902,151.551,159.371,151.551z"/>
					</g>
					<path id="XMLID_407_" style="fill:#27DEBF;" d="M148.883,141.221c2.052-1.185,3.715-0.224,3.715,2.145s-1.663,5.25-3.715,6.435
						c-2.052,1.185-3.715,0.224-3.715-2.145C145.168,145.286,146.831,142.406,148.883,141.221z"/>
				</g>
			</g>
			<g>
				<path style="fill:#455A64;" d="M110.843,161.297c-1.061-2.893-2.536-4.991-4.424-6.289c-0.2-0.137-0.403-0.266-0.61-0.387
					c-1.753-1.021-10.057-5.804-10.255-5.919c-0.877-0.512-1.824-0.87-2.835-1.083l14.591-8.425c0.569-0.328,1.061-0.93,1.475-1.807
					c0.414-0.875,0.621-1.751,0.621-2.629V122.09c0-0.876-0.207-1.512-0.621-1.912c-0.081-0.078-0.166-0.142-0.253-0.192
					c-0.357-0.205-10.203-5.892-10.294-5.943c-0.355-0.198-0.758-0.168-1.211,0.093l-33.222,19.181
					c-0.57,0.33-1.048,0.925-1.435,1.787c-0.388,0.862-0.61,1.745-0.66,2.651l-2.329,44.009c-0.052,0.908,0.129,1.561,0.543,1.958
					c0.075,0.072,0.153,0.132,0.234,0.179c0.37,0.215,7.283,4.204,7.283,4.204l-8.682,5.012c-0.466,0.269-0.867,0.76-1.203,1.472
					c-0.337,0.714-0.504,1.426-0.504,2.143c0.05,3.238,0.594,6.092,1.63,8.559c1.035,2.471,2.509,4.329,4.424,5.572
					c0.135,0.088,0.272,0.172,0.411,0.253c1.694,0.98,10.149,5.86,10.292,5.942c1.834,1.06,4.035,1.494,6.605,1.303
					c2.768-0.204,5.912-1.322,9.431-3.354c3.155-1.821,6.105-4.163,8.849-7.02c2.743-2.857,5.136-6.132,7.18-9.822
					c2.044-3.69,3.648-7.703,4.813-12.041c1.164-4.335,1.746-8.896,1.746-13.676C112.435,167.907,111.904,164.191,110.843,161.297z
					 M83.87,182.726c0.311-0.18,0.698-0.562,1.164-1.15c0.466-0.587,0.971-1.218,1.514-1.889c0.268-0.331,0.548-0.665,0.841-1.001
					c-0.076,0.351-0.159,0.699-0.257,1.039c-0.44,1.529-1.048,2.957-1.824,4.28c-0.777,1.326-1.657,2.491-2.64,3.496
					c-0.983,1.007-2.018,1.823-3.104,2.449c-0.86,0.497-1.639,0.822-2.337,0.976l-3.776-2.184L83.87,182.726z"/>
				<path style="fill:#37474F;" d="M73.392,216.798c0.127,0.084,0.253,0.16,0.38,0.236c-0.624-0.363-8.607-4.97-10.253-5.915
					c-0.143-0.084-0.279-0.169-0.414-0.253c-1.916-1.249-3.384-3.105-4.422-5.578c-1.038-2.464-1.578-5.316-1.628-8.556
					c0-0.65,0.143-1.299,0.422-1.949l10.286,5.941c-0.287,0.65-0.43,1.3-0.43,1.949c0.051,3.232,0.599,6.092,1.637,8.557
					C70,213.701,71.477,215.558,73.392,216.798z"/>
				<path style="fill:#37474F;" d="M98.074,180.741c0,1.755-0.22,3.392-0.658,4.92c-0.439,1.527-1.046,2.953-1.823,4.278
					c-0.776,1.325-1.662,2.498-2.641,3.502c-0.987,1.004-2.017,1.823-3.105,2.447c-1.19,0.684-2.228,1.046-3.105,1.072
					c-0.878,0.034-1.629-0.11-2.253-0.43c-0.616-0.321-1.148-0.751-1.587-1.291c-0.439-0.54-0.844-1.072-1.207-1.578
					c-0.135-0.202-0.38-0.397-0.734-0.582c-0.05-0.034-0.101-0.067-0.16-0.093l-3.569-2.059c0.701-0.16,1.477-0.481,2.329-0.979
					c1.089-0.624,2.126-1.443,3.105-2.447c0.987-1.004,1.865-2.169,2.641-3.493c0.776-1.325,1.384-2.751,1.823-4.278
					c0.101-0.346,0.186-0.692,0.262-1.046c0.304-0.346,0.616-0.692,0.945-1.046c0.641-0.684,1.325-1.24,2.05-1.662
					c2.38-1.375,4.261-1.603,5.628-0.684C97.391,176.218,98.074,178.032,98.074,180.741z"/>
				<path style="fill:#37474F;" d="M72.894,140.557c-0.084,0.152-0.16,0.312-0.236,0.481c-0.388,0.861-0.616,1.747-0.667,2.65
					l-2.329,44.015c-0.051,0.903,0.135,1.561,0.549,1.958l-10.05-5.763c-0.084-0.042-0.16-0.101-0.236-0.177
					c-0.413-0.397-0.591-1.046-0.54-1.958l2.329-44.006c0.05-0.911,0.27-1.789,0.658-2.65c0.076-0.177,0.16-0.329,0.245-0.489
					L72.894,140.557z"/>
				<path style="fill:#27DEBF;" d="M81.696,193.661c0.361,0.508,0.763,1.035,1.203,1.576c0.439,0.544,0.971,0.975,1.591,1.292
					c0.621,0.32,1.37,0.464,2.251,0.434c0.879-0.03,1.914-0.388,3.105-1.076c1.086-0.626,2.121-1.442,3.104-2.449
					c0.983-1.005,1.863-2.17,2.64-3.496c0.775-1.324,1.384-2.751,1.824-4.28c0.439-1.526,0.659-3.168,0.659-4.922
					c0-2.708-0.687-4.522-2.057-5.445c-1.371-0.92-3.248-0.694-5.628,0.68c-0.725,0.419-1.41,0.975-2.057,1.665
					c-0.648,0.694-1.243,1.375-1.786,2.047c-0.543,0.672-1.047,1.303-1.514,1.889c-0.466,0.588-0.853,0.971-1.163,1.15l-12.11,6.991
					c-0.62,0.359-1.139,0.34-1.552-0.059c-0.414-0.397-0.595-1.05-0.543-1.958l2.329-44.009c0.05-0.906,0.272-1.789,0.66-2.651
					c0.387-0.861,0.865-1.457,1.436-1.787l33.222-19.181c0.569-0.328,1.061-0.292,1.475,0.105c0.414,0.4,0.621,1.036,0.621,1.912
					v12.668c0,0.878-0.207,1.753-0.621,2.629c-0.414,0.878-0.906,1.479-1.475,1.807l-22.588,13.042l-0.543,10.95
					c0.931-1.333,2.004-2.61,3.22-3.831c1.215-1.219,2.549-2.249,3.998-3.085c3-1.733,5.782-2.7,8.344-2.906
					c2.561-0.203,4.786,0.344,6.676,1.645c1.888,1.299,3.362,3.397,4.424,6.289c1.061,2.894,1.591,6.61,1.591,11.151
					c0,4.78-0.582,9.341-1.746,13.676c-1.164,4.338-2.769,8.351-4.813,12.041c-2.044,3.69-4.438,6.965-7.18,9.822
					c-2.743,2.857-5.693,5.199-8.849,7.02c-3.52,2.032-6.663,3.15-9.431,3.354c-2.77,0.206-5.111-0.315-7.025-1.561
					c-1.915-1.243-3.389-3.102-4.424-5.572c-1.036-2.467-1.58-5.322-1.63-8.559c0-0.717,0.167-1.43,0.504-2.143
					c0.336-0.712,0.738-1.203,1.203-1.472l9.858-5.692c0.826-0.477,1.461-0.605,1.902-0.38
					C81.242,193.206,81.54,193.434,81.696,193.661z"/>
			</g>
		</g>
		<g>
			<path style="fill:#455A64;" d="M85.065,265.546c0.02-0.956,0.132-1.882,0.336-2.778c0.204-0.896,0.501-1.737,0.889-2.518
				c0.388-0.783,0.865-1.491,1.433-2.125c0.567-0.635,1.229-1.169,1.985-1.606c0.888-0.513,1.621-0.76,2.199-0.739
				c0.577,0.02,1.037,0.18,1.379,0.479c0.342,0.297,0.582,0.669,0.72,1.117c0.138,0.447,0.217,0.846,0.238,1.196
				c0.01,0.184-0.029,0.359-0.115,0.527c-0.087,0.168-0.187,0.284-0.298,0.349l-1.242,0.717c-0.113,0.066-0.202,0.074-0.269,0.026
				c-0.067-0.048-0.114-0.112-0.146-0.188c-0.021-0.051-0.074-0.158-0.16-0.32c-0.087-0.162-0.226-0.303-0.414-0.422
				c-0.189-0.118-0.437-0.178-0.743-0.184c-0.307-0.003-0.689,0.126-1.149,0.392c-0.767,0.442-1.379,1.115-1.84,2.017
				c-0.459,0.903-0.704,1.898-0.735,2.986c-0.021,0.609-0.031,1.255-0.031,1.94c0,0.683,0.01,1.319,0.031,1.905
				c0.031,1.287,0.276,2.093,0.735,2.418c0.46,0.324,1.073,0.264,1.84-0.177c0.377-0.219,0.725-0.481,1.041-0.791
				c0.318-0.309,0.591-0.671,0.821-1.087c0.229-0.414,0.408-0.892,0.536-1.429c0.127-0.537,0.191-1.144,0.191-1.821v-0.189
				l-1.869,1.079c-0.113,0.066-0.21,0.059-0.291-0.02c-0.082-0.078-0.123-0.203-0.123-0.377v-1.676c0-0.172,0.041-0.345,0.123-0.519
				c0.081-0.172,0.178-0.291,0.291-0.357l3.524-2.035c0.112-0.065,0.21-0.058,0.291,0.021c0.082,0.079,0.123,0.205,0.123,0.377
				v2.595c0,0.943-0.099,1.869-0.291,2.775c-0.195,0.908-0.486,1.759-0.875,2.557c-0.388,0.799-0.873,1.527-1.455,2.185
				c-0.582,0.658-1.262,1.212-2.038,1.66c-0.776,0.448-1.452,0.681-2.023,0.696c-0.572,0.015-1.047-0.15-1.424-0.499
				c-0.378-0.348-0.668-0.86-0.867-1.541c-0.2-0.678-0.31-1.484-0.329-2.416c-0.01-0.292-0.019-0.617-0.024-0.977
				c-0.005-0.359-0.007-0.727-0.007-1.104c0-0.377,0.002-0.749,0.007-1.114C85.047,266.185,85.055,265.851,85.065,265.546z"/>
			<path style="fill:#455A64;" d="M101.14,250.155c0.163-0.094,0.286-0.098,0.367-0.012c0.082,0.086,0.154,0.245,0.215,0.478
				l3.754,12.743c0.01,0.041,0.015,0.093,0.015,0.156c0,0.173-0.041,0.346-0.122,0.519c-0.083,0.173-0.18,0.292-0.291,0.357
				l-1.104,0.637c-0.204,0.119-0.347,0.134-0.429,0.047c-0.082-0.086-0.137-0.182-0.169-0.291l-0.658-2.239l-4.842,2.795
				l-0.658,2.999c-0.032,0.143-0.087,0.306-0.169,0.486c-0.082,0.182-0.225,0.33-0.429,0.449l-1.104,0.637
				c-0.112,0.065-0.209,0.058-0.291-0.02c-0.081-0.079-0.122-0.204-0.122-0.377c0-0.063,0.005-0.121,0.015-0.174l3.754-17.079
				c0.062-0.302,0.133-0.543,0.215-0.726c0.081-0.18,0.204-0.318,0.367-0.412L101.14,250.155z M101.983,260.025l-1.686-5.751
				l-1.686,7.697L101.983,260.025z"/>
			<path style="fill:#455A64;" d="M112.94,243.342c0.113-0.066,0.209-0.059,0.291,0.02c0.082,0.079,0.122,0.204,0.122,0.377v1.674
				c0,0.173-0.04,0.347-0.122,0.52c-0.082,0.172-0.178,0.291-0.291,0.357l-2.758,1.592v12.929c0,0.173-0.041,0.346-0.123,0.519
				c-0.081,0.173-0.178,0.292-0.291,0.357l-1.241,0.717c-0.112,0.065-0.209,0.057-0.29-0.021c-0.083-0.079-0.123-0.205-0.123-0.377
				v-12.929l-2.758,1.591c-0.113,0.066-0.209,0.057-0.291-0.02c-0.082-0.078-0.122-0.205-0.122-0.377v-1.676
				c0-0.172,0.04-0.344,0.122-0.519c0.082-0.172,0.178-0.291,0.291-0.357L112.94,243.342z"/>
			<path style="fill:#455A64;" d="M122.027,251.662c0.113-0.065,0.209-0.057,0.291,0.02c0.082,0.079,0.123,0.205,0.123,0.377v1.676
				c0,0.173-0.041,0.346-0.123,0.519c-0.082,0.173-0.178,0.292-0.291,0.357l-6.727,3.883c-0.113,0.066-0.209,0.059-0.291-0.021
				c-0.082-0.078-0.123-0.203-0.123-0.377v-15.24c0-0.174,0.041-0.347,0.123-0.519c0.082-0.174,0.178-0.292,0.291-0.357l6.605-3.814
				c0.113-0.065,0.209-0.058,0.291,0.021c0.081,0.079,0.122,0.204,0.122,0.377v1.675c0,0.173-0.041,0.347-0.122,0.52
				c-0.082,0.172-0.178,0.292-0.291,0.357l-4.951,2.858v3.751l4.612-2.663c0.113-0.065,0.21-0.059,0.292,0.021
				c0.081,0.079,0.122,0.204,0.122,0.377v1.675c0,0.173-0.041,0.346-0.122,0.519c-0.082,0.173-0.179,0.292-0.292,0.357l-4.612,2.663
				v3.916L122.027,251.662z"/>
			<path style="fill:#455A64;" d="M129.291,242.56l-1.318,7.816c-0.051,0.266-0.116,0.495-0.192,0.688
				c-0.077,0.194-0.192,0.335-0.345,0.424l-1.242,0.717c-0.154,0.088-0.274,0.083-0.36-0.016c-0.086-0.098-0.146-0.257-0.176-0.476
				l-1.962-13.755c-0.009-0.073-0.015-0.132-0.015-0.179c0-0.173,0.041-0.346,0.123-0.519c0.082-0.173,0.178-0.292,0.291-0.357
				l1.134-0.655c0.101-0.059,0.199-0.068,0.291-0.027c0.091,0.042,0.153,0.172,0.184,0.39l1.287,9.26l1.134-6.954
				c0.02-0.122,0.07-0.291,0.146-0.509c0.076-0.217,0.207-0.378,0.391-0.485l1.256-0.726c0.184-0.106,0.315-0.094,0.392,0.035
				c0.076,0.129,0.125,0.242,0.146,0.341l1.133,5.644l1.287-10.747c0.032-0.253,0.092-0.453,0.184-0.601
				c0.092-0.148,0.189-0.25,0.291-0.31l1.134-0.654c0.113-0.066,0.209-0.059,0.291,0.021c0.081,0.078,0.122,0.203,0.122,0.377
				c0,0.047-0.005,0.113-0.015,0.197l-1.962,16.02c-0.03,0.254-0.089,0.481-0.175,0.679c-0.087,0.201-0.207,0.345-0.361,0.433
				l-1.241,0.717c-0.153,0.089-0.268,0.08-0.345-0.026c-0.077-0.105-0.14-0.26-0.192-0.467L129.291,242.56z"/>
			<path style="fill:#455A64;" d="M141.09,227.09c0.164-0.094,0.286-0.098,0.368-0.012c0.081,0.087,0.154,0.245,0.214,0.478
				l3.754,12.743c0.01,0.041,0.016,0.094,0.016,0.156c0,0.174-0.041,0.347-0.123,0.519c-0.082,0.174-0.179,0.293-0.291,0.357
				l-1.103,0.638c-0.205,0.118-0.348,0.133-0.43,0.047c-0.081-0.086-0.137-0.184-0.168-0.291l-0.659-2.24l-4.841,2.795l-0.659,3.001
				c-0.031,0.144-0.087,0.306-0.169,0.486c-0.081,0.18-0.225,0.33-0.429,0.448l-1.103,0.637c-0.112,0.066-0.21,0.06-0.291-0.02
				c-0.082-0.078-0.123-0.203-0.123-0.377c0-0.061,0.005-0.121,0.016-0.174l3.753-17.078c0.062-0.303,0.133-0.544,0.215-0.726
				c0.082-0.18,0.204-0.318,0.368-0.412L141.09,227.09z M141.933,236.96l-1.686-5.751l-1.685,7.697L141.933,236.96z"/>
			<path style="fill:#455A64;" d="M153.809,219.747c0.113-0.066,0.21-0.06,0.291,0.02c0.082,0.078,0.123,0.203,0.123,0.377
				c0,0.078-0.01,0.156-0.031,0.23l-3.632,11.934v5.191c0,0.174-0.04,0.347-0.122,0.519c-0.082,0.174-0.18,0.293-0.291,0.357
				l-1.226,0.709c-0.112,0.065-0.209,0.058-0.29-0.021c-0.083-0.078-0.123-0.203-0.123-0.377v-5.191l-3.632-7.74
				c-0.021-0.051-0.031-0.116-0.031-0.195c0-0.173,0.041-0.346,0.122-0.519c0.082-0.173,0.179-0.292,0.291-0.357l1.15-0.663
				c0.204-0.118,0.358-0.128,0.46-0.03c0.102,0.098,0.163,0.18,0.184,0.248l2.483,5.242l2.483-8.109
				c0.02-0.09,0.082-0.244,0.184-0.459c0.102-0.216,0.256-0.384,0.46-0.503L153.809,219.747z"/>
			<path style="fill:#455A64;" d="M165.609,212.933c0.112-0.065,0.209-0.057,0.291,0.021c0.081,0.08,0.122,0.205,0.122,0.377v1.676
				c0,0.172-0.041,0.347-0.122,0.519c-0.082,0.172-0.179,0.292-0.291,0.357l-2.758,1.594v12.929c0,0.172-0.041,0.345-0.123,0.519
				c-0.082,0.172-0.178,0.291-0.291,0.357l-1.242,0.716c-0.112,0.066-0.208,0.058-0.29-0.021c-0.082-0.078-0.122-0.204-0.122-0.377
				V218.67l-2.758,1.593c-0.113,0.065-0.21,0.057-0.291-0.021c-0.083-0.079-0.123-0.205-0.123-0.378v-1.675
				c0-0.173,0.04-0.346,0.123-0.519c0.081-0.173,0.178-0.292,0.291-0.357L165.609,212.933z"/>
			<path style="fill:#455A64;" d="M167.969,228.087c-0.113,0.065-0.21,0.058-0.292-0.021c-0.081-0.079-0.122-0.204-0.122-0.377
				v-15.241c0-0.173,0.041-0.346,0.122-0.519c0.082-0.173,0.179-0.291,0.292-0.357l1.241-0.717c0.112-0.065,0.209-0.059,0.29,0.021
				c0.082,0.078,0.123,0.203,0.123,0.377v15.24c0,0.174-0.041,0.347-0.123,0.519c-0.081,0.174-0.178,0.292-0.29,0.357
				L167.969,228.087z"/>
			<path style="fill:#455A64;" d="M177.04,214.757l2.911-9.467c0.041-0.102,0.11-0.267,0.207-0.496
				c0.097-0.23,0.247-0.402,0.451-0.521l1.043-0.601c0.112-0.066,0.209-0.058,0.291,0.021c0.082,0.078,0.123,0.203,0.123,0.377
				v15.24c0,0.174-0.041,0.347-0.123,0.519c-0.082,0.174-0.179,0.293-0.291,0.357l-1.242,0.718c-0.112,0.065-0.209,0.057-0.291-0.02
				c-0.081-0.08-0.122-0.205-0.122-0.377v-9.225l-1.993,6.458c-0.051,0.155-0.122,0.326-0.214,0.513
				c-0.091,0.187-0.21,0.322-0.353,0.404l-0.797,0.46c-0.143,0.083-0.26,0.083-0.353,0.003c-0.091-0.081-0.163-0.17-0.213-0.266
				l-1.993-4.158v9.225c0,0.173-0.041,0.346-0.122,0.519c-0.082,0.173-0.178,0.291-0.29,0.357l-1.242,0.716
				c-0.113,0.066-0.21,0.059-0.291-0.021c-0.082-0.078-0.123-0.203-0.123-0.377v-15.24c0-0.174,0.041-0.347,0.123-0.519
				c0.081-0.174,0.178-0.292,0.291-0.357l1.042-0.602c0.204-0.118,0.355-0.119,0.452-0.001c0.096,0.117,0.165,0.202,0.206,0.257
				L177.04,214.757z"/>
			<path style="fill:#455A64;" d="M191.598,211.495c0.113-0.065,0.209-0.057,0.291,0.021c0.082,0.079,0.122,0.205,0.122,0.377v1.676
				c0,0.173-0.04,0.346-0.122,0.519c-0.082,0.173-0.178,0.292-0.291,0.357l-6.727,3.883c-0.113,0.066-0.21,0.06-0.291-0.02
				c-0.082-0.078-0.123-0.203-0.123-0.377v-15.24c0-0.174,0.041-0.347,0.123-0.519c0.081-0.174,0.179-0.292,0.291-0.357l6.604-3.814
				c0.113-0.065,0.21-0.058,0.291,0.021c0.082,0.079,0.123,0.204,0.123,0.377v1.674c0,0.173-0.041,0.347-0.123,0.52
				c-0.081,0.172-0.178,0.292-0.291,0.357l-4.95,2.858v3.751l4.612-2.663c0.113-0.065,0.21-0.058,0.291,0.021
				c0.082,0.079,0.123,0.204,0.123,0.377v1.676c0,0.173-0.041,0.346-0.123,0.519c-0.081,0.173-0.178,0.292-0.291,0.357l-4.612,2.663
				v3.916L191.598,211.495z"/>
			<path style="fill:#455A64;" d="M197.038,200.946c0.031-0.898,0.14-1.791,0.329-2.68c0.19-0.887,0.468-1.723,0.836-2.51
				c0.367-0.786,0.828-1.507,1.378-2.165c0.552-0.655,1.207-1.203,1.963-1.64c0.745-0.431,1.394-0.64,1.945-0.628
				c0.553,0.011,1.011,0.203,1.38,0.571c0.367,0.37,0.648,0.884,0.843,1.543c0.193,0.658,0.306,1.426,0.336,2.306
				c0.01,0.292,0.017,0.618,0.023,0.977c0.006,0.359,0.008,0.73,0.008,1.116c0,0.385-0.002,0.761-0.008,1.126
				c-0.005,0.365-0.012,0.699-0.023,1.004c-0.031,0.898-0.141,1.791-0.329,2.679c-0.19,0.888-0.468,1.725-0.835,2.51
				c-0.368,0.788-0.831,1.506-1.387,2.158c-0.557,0.652-1.208,1.194-1.953,1.624c-0.756,0.436-1.411,0.648-1.963,0.637
				c-0.551-0.011-1.011-0.198-1.378-0.561c-0.368-0.361-0.646-0.877-0.836-1.546c-0.189-0.67-0.298-1.436-0.329-2.299
				c-0.01-0.292-0.018-0.618-0.023-0.977c-0.006-0.359-0.008-0.731-0.008-1.117c0-0.386,0.002-0.76,0.008-1.125
				C197.021,201.585,197.028,201.25,197.038,200.946z M203.981,197.055c-0.041-1.11-0.279-1.848-0.713-2.219
				c-0.435-0.369-1.009-0.35-1.724,0.064c-0.716,0.412-1.29,1.056-1.724,1.927c-0.435,0.873-0.673,1.886-0.714,3.042
				c-0.021,0.61-0.03,1.28-0.03,2.012c0,0.73,0.009,1.389,0.03,1.975c0.041,1.11,0.279,1.846,0.714,2.208
				c0.434,0.362,1.008,0.337,1.724-0.075c0.715-0.413,1.289-1.052,1.724-1.915c0.434-0.863,0.672-1.875,0.713-3.031
				c0.021-0.609,0.03-1.28,0.03-2.01C204.01,198.3,204.001,197.642,203.981,197.055z"/>
			<path style="fill:#455A64;" d="M216.362,183.632c0.113-0.066,0.209-0.059,0.291,0.021c0.082,0.078,0.123,0.203,0.123,0.377v9.672
				c0,0.976-0.092,1.909-0.276,2.802c-0.184,0.893-0.459,1.729-0.827,2.506c-0.367,0.779-0.828,1.481-1.379,2.106
				c-0.552,0.625-1.189,1.147-1.915,1.567c-0.735,0.425-1.376,0.642-1.924,0.65c-0.546,0.008-1.003-0.164-1.371-0.519
				c-0.367-0.353-0.641-0.872-0.819-1.555c-0.18-0.683-0.269-1.512-0.269-2.488v-9.673c0-0.173,0.041-0.346,0.123-0.519
				c0.081-0.173,0.178-0.292,0.291-0.357l1.241-0.717c0.113-0.065,0.209-0.057,0.291,0.02c0.081,0.08,0.122,0.205,0.122,0.377v9.555
				c0,0.646,0.056,1.164,0.169,1.555c0.112,0.392,0.271,0.674,0.475,0.846c0.204,0.173,0.449,0.244,0.735,0.213
				c0.286-0.032,0.598-0.145,0.935-0.339c0.336-0.195,0.651-0.443,0.942-0.744c0.291-0.303,0.539-0.658,0.743-1.066
				c0.204-0.408,0.365-0.875,0.483-1.401c0.117-0.523,0.175-1.107,0.175-1.751v-9.555c0-0.174,0.041-0.347,0.123-0.519
				c0.082-0.174,0.178-0.292,0.291-0.357L216.362,183.632z"/>
			<path style="fill:#455A64;" d="M226.231,177.934c0.113-0.065,0.21-0.059,0.291,0.02c0.082,0.079,0.123,0.204,0.123,0.377v1.675
				c0,0.173-0.041,0.347-0.123,0.52c-0.081,0.172-0.178,0.292-0.291,0.357l-2.758,1.592v12.929c0,0.173-0.04,0.346-0.122,0.519
				c-0.082,0.173-0.178,0.291-0.291,0.357l-1.242,0.717c-0.112,0.065-0.208,0.059-0.29-0.021c-0.083-0.078-0.123-0.203-0.123-0.377
				v-12.929l-2.757,1.594c-0.113,0.065-0.21,0.057-0.292-0.021c-0.082-0.079-0.122-0.205-0.122-0.38v-1.673
				c0-0.174,0.04-0.346,0.122-0.519c0.082-0.174,0.18-0.292,0.292-0.357L226.231,177.934z"/>
		</g>
		<g>
			<path style="fill:#455A64;" d="M126.26,218.683c0.136-0.079,0.252-0.07,0.351,0.023c0.098,0.095,0.147,0.247,0.147,0.455v3.003
				c0,0.208-0.049,0.417-0.147,0.625c-0.099,0.207-0.215,0.349-0.351,0.427l-8.724,5.038c-0.135,0.078-0.252,0.069-0.35-0.025
				c-0.099-0.094-0.148-0.244-0.148-0.453v-18.307c0-0.208,0.049-0.415,0.148-0.625c0.098-0.207,0.215-0.35,0.35-0.427l8.578-4.954
				c0.135-0.078,0.251-0.069,0.35,0.026c0.099,0.095,0.148,0.246,0.148,0.453v3.005c0,0.208-0.049,0.415-0.148,0.623
				c-0.099,0.208-0.215,0.351-0.35,0.429l-5.67,3.273v3.061l5.265-3.04c0.135-0.078,0.251-0.069,0.35,0.025
				c0.099,0.094,0.148,0.247,0.148,0.453v3.005c0,0.208-0.049,0.416-0.148,0.623c-0.099,0.208-0.215,0.351-0.35,0.429l-5.265,3.039
				v3.175L126.26,218.683z"/>
			<path style="fill:#455A64;" d="M134.819,198.438c0.81-0.467,1.534-0.754,2.173-0.859c0.637-0.103,1.18-0.019,1.629,0.251
				c0.448,0.27,0.791,0.748,1.031,1.43c0.239,0.684,0.359,1.575,0.359,2.671c0,1.415-0.191,2.702-0.57,3.857
				c-0.38,1.154-0.92,2.18-1.62,3.075l2.282,5.427c0.037,0.091,0.055,0.185,0.055,0.278c0,0.17-0.039,0.34-0.119,0.51
				c-0.081,0.168-0.175,0.285-0.286,0.348l-2.502,1.445c-0.247,0.141-0.421,0.157-0.525,0.047c-0.105-0.108-0.188-0.232-0.249-0.365
				l-2.043-4.885l-1.694,0.978v6.065c0,0.208-0.05,0.417-0.147,0.624c-0.099,0.207-0.216,0.351-0.351,0.428l-2.411,1.392
				c-0.136,0.079-0.252,0.07-0.349-0.023c-0.099-0.095-0.148-0.246-0.148-0.455v-18.307c0-0.206,0.049-0.414,0.148-0.623
				c0.098-0.208,0.213-0.351,0.349-0.429L134.819,198.438z M132.74,208.225l2.079-1.201c0.515-0.297,0.943-0.695,1.28-1.191
				c0.337-0.497,0.506-1.143,0.506-1.936c0-0.795-0.169-1.245-0.506-1.352c-0.338-0.108-0.765-0.013-1.28,0.285l-2.079,1.201
				V208.225z"/>
			<path style="fill:#455A64;" d="M148.073,190.785c0.81-0.467,1.533-0.753,2.172-0.857c0.639-0.103,1.181-0.02,1.629,0.25
				c0.448,0.27,0.792,0.748,1.031,1.431c0.239,0.684,0.359,1.575,0.359,2.67c0,1.416-0.19,2.703-0.571,3.857
				c-0.38,1.154-0.92,2.18-1.619,3.075l2.282,5.427c0.036,0.092,0.055,0.185,0.055,0.279c0,0.17-0.04,0.339-0.12,0.509
				c-0.08,0.168-0.175,0.285-0.286,0.348l-2.502,1.445c-0.245,0.142-0.421,0.157-0.525,0.048c-0.104-0.11-0.187-0.232-0.249-0.367
				l-2.043-4.885l-1.693,0.977v6.065c0,0.208-0.05,0.416-0.148,0.625c-0.099,0.207-0.216,0.351-0.35,0.427l-2.412,1.393
				c-0.135,0.078-0.251,0.069-0.35-0.025c-0.099-0.094-0.148-0.245-0.148-0.454v-18.307c0-0.207,0.049-0.416,0.148-0.624
				s0.215-0.351,0.35-0.428L148.073,190.785z M145.993,200.573l2.079-1.201c0.515-0.298,0.942-0.695,1.279-1.192
				c0.337-0.497,0.507-1.143,0.507-1.936c0-0.794-0.17-1.244-0.507-1.352c-0.337-0.108-0.764-0.013-1.279,0.285l-2.079,1.201
				V200.573z"/>
			<path style="fill:#455A64;" d="M155.416,193.942c0.037-1.078,0.187-2.162,0.451-3.25c0.264-1.088,0.639-2.116,1.122-3.085
				c0.486-0.97,1.074-1.858,1.768-2.664c0.693-0.807,1.494-1.473,2.401-1.998c0.897-0.516,1.695-0.775,2.394-0.771
				c0.699,0.002,1.291,0.208,1.775,0.618c0.486,0.41,0.859,1.005,1.123,1.788c0.264,0.783,0.414,1.694,0.45,2.73
				c0.026,0.799,0.037,1.642,0.037,2.53c0,0.888-0.012,1.727-0.037,2.515c-0.036,1.079-0.187,2.161-0.45,3.25
				c-0.265,1.087-0.638,2.12-1.123,3.099c-0.484,0.98-1.076,1.868-1.775,2.669c-0.699,0.8-1.497,1.46-2.394,1.976
				c-0.907,0.525-1.709,0.788-2.401,0.793c-0.694,0.002-1.282-0.204-1.768-0.624c-0.483-0.42-0.858-1.021-1.122-1.803
				c-0.264-0.784-0.414-1.693-0.451-2.73c-0.025-0.76-0.036-1.584-0.036-2.473C155.38,195.626,155.391,194.77,155.416,193.942z
				 M163.497,194.179c0.012-0.346,0.023-0.731,0.037-1.155c0.012-0.422,0.018-0.851,0.018-1.286c0-0.434-0.007-0.851-0.018-1.25
				c-0.014-0.399-0.025-0.755-0.037-1.07c-0.024-0.458-0.089-0.855-0.193-1.191c-0.105-0.337-0.252-0.596-0.442-0.78
				c-0.19-0.183-0.426-0.277-0.709-0.285c-0.282-0.006-0.613,0.1-0.995,0.319c-0.379,0.22-0.711,0.496-0.993,0.829
				c-0.283,0.333-0.518,0.701-0.709,1.103c-0.19,0.404-0.338,0.833-0.441,1.29c-0.105,0.457-0.17,0.929-0.193,1.415
				c-0.025,0.336-0.04,0.708-0.047,1.118c-0.006,0.41-0.008,0.831-0.008,1.267c0,0.433,0.002,0.859,0.008,1.269
				c0.006,0.414,0.021,0.782,0.047,1.107c0.049,0.918,0.26,1.579,0.634,1.987c0.375,0.407,0.941,0.391,1.702-0.049
				c0.762-0.439,1.326-1.076,1.695-1.913C163.221,196.067,163.436,195.161,163.497,194.179z"/>
			<path style="fill:#455A64;" d="M175.001,175.239c0.81-0.467,1.534-0.754,2.173-0.858c0.638-0.103,1.181-0.019,1.629,0.251
				c0.447,0.27,0.791,0.748,1.03,1.43c0.24,0.684,0.359,1.575,0.359,2.671c0,1.415-0.19,2.702-0.571,3.857
				c-0.379,1.154-0.92,2.18-1.619,3.075l2.282,5.427c0.036,0.091,0.055,0.185,0.055,0.278c0,0.17-0.039,0.34-0.12,0.51
				c-0.08,0.168-0.174,0.285-0.285,0.348l-2.503,1.445c-0.245,0.141-0.421,0.157-0.524,0.047c-0.105-0.108-0.188-0.232-0.249-0.366
				l-2.044-4.885l-1.693,0.977v6.065c0,0.208-0.05,0.417-0.148,0.624c-0.098,0.207-0.215,0.351-0.35,0.428l-2.412,1.392
				c-0.135,0.079-0.251,0.07-0.35-0.023c-0.099-0.095-0.147-0.247-0.147-0.455V179.17c0-0.206,0.048-0.414,0.147-0.623
				s0.215-0.351,0.35-0.429L175.001,175.239z M172.922,185.025l2.079-1.201c0.515-0.297,0.942-0.695,1.28-1.191
				c0.337-0.497,0.506-1.143,0.506-1.936c0-0.795-0.169-1.245-0.506-1.352c-0.338-0.108-0.765-0.013-1.28,0.285l-2.079,1.201
				V185.025z"/>
		</g>
	</g>
</g>
<g id="Character">
	<g id="Character_3_">
		<g id="Character_2_">
			<g id="Character_1_">
				<g id="XMLID_572_">
					<g>
						<path style="fill:#FFA8A7;" d="M303.238,362.223c-0.084-8.179-3.116-60.146-4.202-72.098
							c-1.824-20.077-1.624-74.321,2.413-91.608l53.997,4.278c3.863,9.729,6.687,21.704,6.034,40.479
							c-0.499,14.32-0.267,53.165-0.267,53.165s2.916,7.713,5.425,18.599c2.422,10.504,4.867,42.312,5.93,52.756l0.02,1.395
							c0,0,0.939,1.22,0.972,2.161c0.029,0.835-0.11,1.672-0.078,2.502c0.081,2.097-0.223,3.745-1.42,5.541
							c-0.798,1.197-1.814,2.281-3.088,2.948c-1.275,0.667-2.831,0.877-4.169,0.351c-3.846-1.509-3.285-7.651-4.564-10.848
							l-0.596-1.55c0,0-16.703-50.725-20.756-63.274c-3.415-10.574-7.959-44.937-11.628-63.962l-6.402,45.432
							c0,0,2.768,8.213,3.442,14.499c1.496,13.96-3.875,40.919-5.687,52.664c-0.264,1.713-0.36,3.458-0.277,5.19
							c0.024,0.501,1.501,5.336-4.686,5.82S303.245,362.944,303.238,362.223z"/>
						<path style="fill:#27DEBF;" d="M349.548,186.503c0,0,6.859,12.989,9.877,25.618c3.018,12.629,2.851,20.921,2.733,42.926
							c-0.118,22.005-0.433,41.137-0.433,41.137s1.962,2.871,3.328,7.117c1.87,5.813,3.522,12.265,4.274,29.247
							c0,0-9.24,7.44-20.662,4.495c0,0-8.327-23.561-10.774-31.122c-3.167-9.782-10.629-62.864-10.629-62.864l-5.176,45.512
							c0,0,3.908,10.881,3.394,18.571c-0.514,7.69-2.23,19.823-2.23,19.823s-10.908,3.677-21.98-1.45c0,0-3.008-35.831-3.494-48.801
							c-0.485-12.97-2.068-58.748,4.292-87.43L349.548,186.503z"/>
						<path style="opacity:0.3;" d="M349.548,186.503c0,0,6.859,12.989,9.877,25.618c3.018,12.629,2.851,20.921,2.733,42.926
							c-0.118,22.005-0.433,41.137-0.433,41.137s1.962,2.871,3.328,7.117c1.87,5.813,3.522,12.265,4.274,29.247
							c0,0-9.24,7.44-20.662,4.495c0,0-8.327-23.561-10.774-31.122c-3.167-9.782-10.629-62.864-10.629-62.864l-5.176,45.512
							c0,0,3.908,10.881,3.394,18.571c-0.514,7.69-2.23,19.823-2.23,19.823s-10.908,3.677-21.98-1.45c0,0-3.008-35.831-3.494-48.801
							c-0.485-12.97-2.068-58.748,4.292-87.43L349.548,186.503z"/>
						<path style="opacity:0.3;" d="M327.291,243.176l-5.12-20.058c0,0-9.846,1.139-17.598-4.589c0,0,1.583,7.336,15.314,9.529
							l5.863,19.691l-0.092,9.405L327.291,243.176z"/>
						<g>
							<path id="XMLID_641_" style="fill:#263238;" d="M346.278,397.082c-0.398,0.416-0.153,3.483,0.349,4.185
								c0.538,0.752,3.315,3.023,8.486,3.115c4.941,0.088,9.301-0.813,12.091-2.803c2.791-1.99,4.081-4.089,4.202-6.908
								c0.121-2.819-0.336-5.507,0.884-7.737c1.127-2.059,2.671-4.089,3.041-5.193c0.805-2.401,0.028-6.034,0.028-6.034
								L346.278,397.082z"/>
							<path id="XMLID_639_" style="fill:#455A64;" d="M358.263,373.303c-0.027,1.045-0.148,2.088-0.434,3.15
								c-0.596,2.212-1.571,4.317-2.683,6.33c-0.573,1.036-1.182,2.056-1.897,3.006c-1.394,1.852-3.164,3.406-4.649,5.189
								c-1.485,1.784-2.713,3.917-2.714,6.206c-0.002,3.872,4.259,4.958,7.515,5.359c3.478,0.428,7.145,0.046,10.455-1.09
								c3.684-1.264,6.227-4.307,6.647-8.073c0.12-1.081-0.004-2.174,0.064-3.259c0.157-2.476,1.31-4.792,2.639-6.916
								c0.771-1.232,1.617-2.439,2.105-3.8c0.878-2.444-0.073-5.089-0.845-7.435c-0.667-2.026-1.198-4.469-1.911-4.235
								c0.019,0.415,0.019,1.321,0.019,1.321c-0.213,0.46-0.728,0.79-0.85,1.319c-0.127,0.552-0.277,1.1-0.501,1.621
								c-0.342,0.795-0.87,1.536-1.611,1.983c-0.127-1.455-0.253-2.91-0.38-4.364c-0.039-0.45-0.094-0.938-0.405-1.265
								c-0.315-0.333-0.808-0.411-1.262-0.47c-2.754-0.361-5.56-0.72-8.295-0.239c-0.41,0.072-0.861,0.192-1.083,0.545
								c-0.182,0.289-0.159,0.656-0.131,0.996C358.177,370.585,358.298,371.945,358.263,373.303z"/>
							<path id="XMLID_633_" style="fill:#F0F0F0;" d="M354.67,383.62c1.38-1.154,4.6-1.342,6.371-1.248
								c2.218,0.118,4.046,0.795,5.101,1.488c0.467,0.307,1.093,0.216,1.468-0.196l0,0c0.451-0.496,0.366-1.266-0.197-1.635
								c-1.117-0.733-3.122-1.741-5.746-1.784c-4.35-0.072-5.582,0.739-5.582,0.739S354.176,382.363,354.67,383.62z"/>
							<path id="XMLID_632_" style="fill:#F0F0F0;" d="M351.577,387.753c1.751-1.166,5.301-1.202,7.073-1.108
								c2.218,0.118,3.914,0.897,4.969,1.59c0.467,0.307,1.093,0.216,1.468-0.196l0,0c0.451-0.495,0.366-1.266-0.197-1.635
								c-1.117-0.733-3.253-1.9-5.876-1.944c-4.351-0.072-5.432,0.874-5.432,0.874S351.79,386.141,351.577,387.753z"/>
							<path id="XMLID_631_" style="fill:#F0F0F0;" d="M363.169,376.004c-3.012-0.148-4.264,0.255-5.424,0.75
								c-0.741,0.469-1.179,1.703-0.671,1.982c0.936-0.588,2.661-0.903,4.794-0.923c1.431-0.013,3.262,0.468,4.756,1.035
								c0.38,0.145,0.831,0.352,1.226,0.544c0.534,0.26,1.182,0.02,1.402-0.52l0,0c0.187-0.458,0.001-0.982-0.442-1.218
								C367.73,377.077,365.603,376.124,363.169,376.004z"/>
						</g>
						<g>
							<path id="XMLID_630_" style="fill:#263238;" d="M278.697,382.814c-0.348,0.84-0.151,2.369,0.366,3.318
								c0.517,0.948,5.757,3.543,12.592,2.711c6.835-0.832,11.397-3.849,13.919-5.722c2.522-1.872,5.228-2.342,8.615-2.719
								c3.386-0.377,5.938-1.557,6.597-3.186c0.66-1.629-0.345-4.319-0.345-4.319L278.697,382.814z"/>
							<path id="XMLID_627_" style="fill:#455A64;" d="M305.326,361.081c-0.629-0.112-1.153-0.308-1.823-0.514
								c-0.333-0.102-0.701-0.203-1.02-0.063c-0.43,0.189-0.573,0.716-0.666,1.176c-0.189,0.94-0.222,2.148-0.588,3.021
								c-0.333,0.792-1.205,1.549-1.816,2.125c-1.589,1.497-3.441,2.703-5.299,3.835c-2.176,1.325-4.322,2.377-6.579,3.543
								c-2.303,1.189-5.401,2.006-7.18,3.35c-2.595,1.959-2.697,6.536,0.467,8.172c2.729,1.411,9.782,2.719,16.972,0.258
								c3.917-1.341,8.103-5.828,13.301-6.517c3.306-0.439,7.716-0.955,9.717-3.591c0.729-1.16,0.096-4.401-0.496-8.239
								c-0.53-3.435-0.98-8.815-2.07-8.462c0.004-0.001-0.013,1.003-0.013,1.003c-0.262,0.439-1.107,1.246-1.43,1.641
								c-0.285,0.348-0.615,0.569-0.928,0.877c-0.402,0.396-0.725,0.846-1.17,1.204c-0.548,0.44-1.211,0.768-1.913,0.797
								c-0.333,0.014-0.675-0.042-0.964-0.208c-0.563-0.323-0.638-1.063-1.094-1.524c-0.519-0.525-1.161-0.928-1.846-1.199
								c-0.956-0.379-1.979-0.528-2.998-0.611C305.688,361.137,305.503,361.113,305.326,361.081z"/>
							<path id="XMLID_618_" style="fill:#F0F0F0;" d="M297.116,368.688c0,0,0.409-1.299,2.363-1.773
								c1.496-0.362,4.223,0.608,5.956,1.884c0.709,0.523,0.678,1.59-0.069,2.056l0,0c-0.445,0.278-1.009,0.242-1.423-0.081
								C302.805,369.887,300.275,368.299,297.116,368.688z"/>
							<path id="XMLID_592_" style="fill:#F0F0F0;" d="M292.576,371.562c0,0,0.894-1.578,2.825-1.653c0,0,3.951-0.099,6.515,2.046
								c0.654,0.547,0.664,1.538-0.06,1.987l0,0c-0.431,0.267-0.975,0.232-1.371-0.085
								C299.331,372.935,297.015,370.989,292.576,371.562z"/>
							<path id="XMLID_574_" style="fill:#F0F0F0;" d="M287.534,374.203c0,0,1.013-1.439,2.944-1.514c0,0,3.683-0.061,6.246,2.084
								c0.654,0.547,0.665,1.538-0.06,1.988l0,0c-0.431,0.267-0.975,0.232-1.371-0.085
								C294.141,375.753,291.973,373.631,287.534,374.203z"/>
						</g>
					</g>
				</g>
				<path style="fill:#FFA8A7;" d="M306.336,127.221c3.946-2.869,6.599-3.124,10.491-2.719l-4.621,29.107
					c0,0-16.695,16.238-21.26,20.771l-13.649-10.667C277.296,163.713,302.385,130.094,306.336,127.221z"/>
				<g>
					<path id="XMLID_571_" style="fill:#F0F0F0;" d="M302.363,180.98c0.701-4.946,0.502-12.087,0.182-16.645
						c-7.99-8.073-6.329-17.311-2.687-23.204c7.482-12.109,16.969-16.63,16.969-16.63l12.487-0.383
						c1.764,0.202,17.12,2.42,19.077,2.927c0,0,5.281,4.482,6.717,9.623c0.817,2.924,1.044,5.848-1.605,15.382l-6.501,16.569
						c0,0-1.888,4.974-0.93,8.445c1.008,3.65,6.258,12.139,9.036,20.532c0,0-11.861,10.617-33.606,8.155
						c-18.594-2.105-21.298-8.363-21.298-8.363S302.136,184.378,302.363,180.98z"/>
					<path style="opacity:0.1;" d="M337.361,160.996c0,0-3.516,7.221-12.844,6.688c-8.533-0.488-11.741-7.803-11.741-7.803
						s0.094,9.815,11.678,10.15C336.023,170.365,337.361,160.996,337.361,160.996z"/>
				</g>
				<g id="Arm_4_">
					<path style="fill:#FFA8A7;" d="M441.745,161.514c0.019-1.414-0.357-3.765-0.97-5.036c-0.475-0.983-0.851-1.541-1.668-1.923
						c-0.497-0.232-1.285,0.018-1.732,0.414c-1.592,1.411-4.137,3.97-5.809,5.338c-1.672,1.368-3.884,2.814-5.178,3.127
						c-0.427-0.352,0.137-0.902,0.396-1.265c0.648-0.906,1.286-1.46,1.984-2.444c0.698-0.984,1.538-1.9,1.16-3.238
						c-0.101-0.357-0.36-0.672-0.701-0.738c-0.341-0.065-0.56,0.08-0.833,0.225c-2.757,1.465-4.342,2.457-6.398,4.182
						c-2.156,1.809-3.428,4.802-7.135,6.266c-3.706,1.464-7.694,1.83-14.558,2.728c-5.335,0.698-11.357,1.2-17.284,1.714
						c-3.455-4.885-16.34-23.392-21.567-31.337c-4.027-6.121-7.268-11.558-13.061-12.481c-4.96,1.434-7.036,14.864-3.832,23.309
						c0,0,3.048,5.421,10.452,14.089c3.526,4.128,11.795,14.709,17.246,20.436c2.606,2.738,3.753,3.4,15.013,1.624
						c6.198-0.978,28.222-6.727,32.411-7.959c4.247-1.249,5.676-1.679,8.407-2.8c2.731-1.121,8.633-4.299,10.857-6.967
						c0.984-1.18,1.708-2.29,2.164-3.667C441.564,163.732,441.727,162.928,441.745,161.514z"/>
				</g>
				<g id="XMLID_427_">
					<path style="fill:#263238;" d="M348.28,80.771c3.57,4.542,4.313,10.492,3.504,16.378c-1.36,9.897-7.306,17.645-14.425,20.972
						c-4.265,1.993-9.818,2.872-12.722,0.405c-4.492-3.816-9.053-7.564-13.903-10.92c-3.622-2.507-7.585-4.998-9.468-8.98
						c-1.622-3.431-1.632-9.312,1.59-11.892c-3.165-2.149-4.538-5.8-5.113-7.914c-0.666-2.444,0.044-3.999,1.034-4.866
						c0.918-0.803,3.788-0.975,4.999-1.125c4.658-0.574,8.024-1.807,12.546-3.063c2.685-0.746,10.409-1.675,15.477-0.76
						c4.025,0.727,8.622,2.264,10.663,7.835C342.46,76.842,345.577,77.332,348.28,80.771z"/>
					<g id="XMLID_543_">
						<path id="XMLID_568_" style="fill:#FFA8A7;" d="M311.714,78.44c-2.955,1.546-6.873,8.575-7.307,23.712
							c-0.368,12.83,3.621,16.211,5.66,17.231c2.038,1.021,6.089,0.674,10.033,0.225l0.411,6.97c0,0-12.937,10.662,0.217,10.78
							c7.771,0.07,16.932-10.646,16.932-10.646l0.735-16.193c0,0,2.805,1.682,5.452-0.72c3.173-2.88,3.923-7.298,1.544-9.976
							c-2.378-2.679-6.577-2.333-8.409,1.55c0,0-2.167,1.344-4.24-3.033c0,0-5.119-0.47-10.82-4.189
							C313.974,88.967,312.29,81.046,311.714,78.44z"/>
					</g>
					<g id="XMLID_540_">
						<path id="XMLID_541_" style="fill:#263238;" d="M320.737,98.191c-0.095,0.921,0.548,1.739,1.434,1.828
							c0.887,0.088,1.683-0.587,1.777-1.508c0.094-0.921-0.548-1.739-1.435-1.827C321.626,96.595,320.832,97.27,320.737,98.191z"/>
					</g>
					<g id="XMLID_529_">
						<path id="XMLID_539_" style="fill:#B16668;" d="M316.856,110.227c-0.095,0.921,0.548,1.739,1.434,1.827
							c0.887,0.088,1.683-0.587,1.776-1.508c0.094-0.921-0.548-1.739-1.435-1.827C317.745,108.63,316.95,109.306,316.856,110.227z"
							/>
					</g>
					<g id="XMLID_523_">
						<path id="XMLID_526_" style="fill:#263238;" d="M309.808,89.741l-3.403,2.049c0.535,0.969,1.73,1.295,2.67,0.729
							C310.014,91.953,310.342,90.709,309.808,89.741z"/>
					</g>
					<g id="XMLID_506_">
						<path id="XMLID_508_" style="fill:#263238;" d="M323.723,93.029l3.629,1.614c0.487-0.993,0.07-2.16-0.933-2.606
							C325.418,91.592,324.21,92.036,323.723,93.029z"/>
					</g>
					<g id="XMLID_503_">
						<path id="XMLID_505_" style="fill:#263238;" d="M307.151,97.48c-0.095,0.921,0.548,1.739,1.435,1.828
							c0.887,0.088,1.682-0.587,1.776-1.508c0.095-0.921-0.548-1.739-1.434-1.827C308.04,95.884,307.245,96.559,307.151,97.48z"/>
					</g>
					<g id="XMLID_471_">
						<polygon id="XMLID_480_" style="fill:#F28F8F;" points="315.427,95.655 314.531,107.082 308.606,104.904 						"/>
					</g>
					<g id="XMLID_434_">
						<path id="XMLID_470_" style="fill:#F28F8F;" d="M320.1,119.608c4.149-0.327,12.753-2.323,14.248-5.606
							c0,0-0.614,2.592-3.259,4.632c-2.646,2.039-10.817,3.905-10.817,3.905L320.1,119.608z"/>
					</g>
					<path id="XMLID_428_" style="fill:#263238;" d="M337.143,98.259l-0.349,6.741l0,0c-2.534-0.131-4.482-2.292-4.35-4.826
						l0.323-6.225L337.143,98.259z"/>
				</g>
			</g>
			<g>
				<g>
					<path style="fill:#37474F;" d="M322.667,210.689c23.585-0.509,52.622,15.431,64.855,35.602
						c6.117,10.086,6.865,19.314,3.142,26.089c-0.567,1.032-3.912,7.12-4.47,8.143c-3.709,6.795-11.903,11.131-23.714,11.386
						c-23.585,0.508-52.622-15.431-64.855-35.602c-6.11-10.075-6.863-19.295-3.154-26.067c0.569-1.04,3.942-7.185,4.516-8.226
						C302.712,215.253,310.892,210.943,322.667,210.689z"/>
					<path style="opacity:0.1;" d="M359.351,220.735c11.737,6.443,22.055,15.471,28.171,25.557
						c6.117,10.086,6.865,19.314,3.142,26.089c-0.567,1.032-3.912,7.12-4.47,8.143c-3.709,6.795-11.903,11.132-23.714,11.386
						c-11.793,0.254-24.949-3.604-36.685-10.047L359.351,220.735z"/>
					<path style="fill:#263238;" d="M380.33,236.862c2.774,2.998,5.208,6.156,7.192,9.429c6.117,10.086,6.865,19.314,3.142,26.089
						c-0.567,1.032-3.912,7.12-4.47,8.143c-3.709,6.795-11.903,11.132-23.714,11.386c-3.827,0.082-7.797-0.275-11.816-1.006
						L380.33,236.862z"/>
					
						<ellipse transform="matrix(0.4812 -0.8766 0.8766 0.4812 -37.8196 430.5197)" style="fill:#455A64;" cx="344.817" cy="247.212" rx="30.204" ry="52.315"/>
				</g>
				<g>
					<path style="fill:#FFA8A7;" d="M322.296,200.542c0.179-0.313,0.619-0.324,0.979-0.295c2.051,0.165,5.334,1.036,6.886-0.842
						c0.236-0.286,0.348-0.678,0.208-0.996c-0.14-0.318-0.385-0.415-0.659-0.557c-2.773-1.434-4.491-2.173-7.078-2.883"/>
					<g id="XMLID_398_" style="opacity:0.4;">
						<path id="XMLID_402_" style="fill:#27DEBF;" d="M337.801,189.548c-14.495,6.35-22.62,19.324-31.436,35.384l77.928,42.779
							c8.816-16.06,15.4-29.88,12.989-45.51c-2.425-15.638-7.172-23.231-8.441-29.105c-1.283-5.882-0.395-9.325,0.889-11.663
							c1.293-2.355,3.721-4.952,9.372-7.028c5.637-2.083,14.591-2.155,29.086-8.504c14.472-6.341,22.606-19.331,31.422-35.391
							l-77.928-42.779c-8.816,16.06-15.409,29.896-12.975,45.518c2.411,15.63,7.158,23.223,8.44,29.105
							c1.269,5.874,0.381,9.317-0.912,11.672c-1.284,2.339-3.712,4.936-9.349,7.019c-3.07,1.125-7.104,1.658-12.477,2.935
							C349.885,185.045,344.421,186.652,337.801,189.548z"/>
					</g>
					
						<ellipse transform="matrix(0.4812 -0.8766 0.8766 0.4812 -36.7733 430.5066)" style="fill:#27DEBF;" cx="345.329" cy="246.321" rx="25.663" ry="44.449"/>
					
						<ellipse transform="matrix(0.4812 -0.8766 0.8766 0.4812 122.6743 425.3478)" style="fill:#27DEBF;" cx="420.694" cy="109.032" rx="25.663" ry="44.449"/>
					<g id="XMLID_392_" style="opacity:0.8;">
						<g>
							<path id="XMLID_9_" style="fill:#FFFFFF;" d="M375.805,138.764c0.634,5.821,2.991,9.967,4.377,13.6
								c1.086,2.85,2.024,5.309,2.555,7.765c1.407,6.497,0.856,11.905-1.683,16.531c-2.478,4.514-2.462,6.023-1.178,6.728
								c1.285,0.705,2.508,0.023,5.048-4.603c2.539-4.626,6.806-7.994,13.043-10.295c2.357-0.871,4.937-1.399,7.924-2.012
								c5.3-1.088,2.939-3.193-0.651-3.939c-10.42-2.164-11.867-4.855-17.371-16.207c-1.414-2.915-3.911-6.69-5.287-8.144
								C380.186,135.655,375.344,134.535,375.805,138.764z"/>
						</g>
					</g>
					<g id="XMLID_359_" style="opacity:0.8;">
						<path id="XMLID_384_" style="fill:#FFFFFF;" d="M378.583,191.244c0.829-1.511,0.464-3.306-0.816-4.009
							c-1.28-0.703-2.99-0.047-3.82,1.464c-0.829,1.511-0.464,3.306,0.816,4.009C376.043,193.41,377.754,192.755,378.583,191.244z"
							/>
					</g>
					<path style="opacity:0.8;fill:#FFFFFF;" d="M311.619,226.892c6.991-12.203,13.871-21.947,24.918-26.6
						c8.731-3.678,21.126-3.656,32.609,2.647c11.483,6.304,17.56,13.856,19.742,26.091c2.101,11.784-2.523,22.853-9.065,35.303
						c-2.593,4.723-8.515,7.618-17.152,7.566c-17.274-0.104-38.866-11.957-48.228-26.475
						C309.762,238.166,309.026,231.615,311.619,226.892L311.619,226.892z"/>
					
						<ellipse transform="matrix(0.4812 -0.8766 0.8766 0.4812 -35.9487 430.4821)" style="opacity:0.7;fill:#FFFFFF;" cx="345.721" cy="245.613" rx="21.052" ry="38.903"/>
				</g>
				<g>
					<path style="fill:#37474F;" d="M404.26,62.056c23.585-0.509,52.622,15.431,64.855,35.602
						c6.117,10.086,6.865,19.314,3.142,26.089c-0.567,1.032-3.912,7.12-4.47,8.143c-3.709,6.795-11.903,11.131-23.714,11.386
						c-23.585,0.508-52.622-15.431-64.855-35.602c-6.11-10.075-6.863-19.295-3.154-26.067c0.569-1.04,3.942-7.184,4.516-8.226
						C384.305,66.62,392.485,62.31,404.26,62.056z"/>
					<path style="opacity:0.1;" d="M440.944,72.101c11.737,6.443,22.055,15.471,28.171,25.556
						c6.117,10.086,6.865,19.314,3.142,26.089c-0.567,1.032-3.912,7.119-4.47,8.143c-3.709,6.795-11.903,11.132-23.714,11.386
						c-11.793,0.254-24.949-3.604-36.685-10.047L440.944,72.101z"/>
					<path style="fill:#263238;" d="M461.923,88.229c2.775,2.998,5.208,6.156,7.192,9.429c6.117,10.086,6.865,19.314,3.142,26.089
						c-0.567,1.032-3.912,7.119-4.47,8.143c-3.709,6.795-11.903,11.132-23.714,11.386c-3.827,0.082-7.797-0.274-11.816-1.006
						L461.923,88.229z"/>
					
						<ellipse transform="matrix(0.4812 -0.8766 0.8766 0.4812 134.803 424.9352)" style="fill:#455A64;" cx="426.41" cy="98.579" rx="30.204" ry="52.315"/>
				</g>
			</g>
			<g id="Arm_3_">
				<path style="fill:#FFA8A7;" d="M277.296,163.713l15.403,7.658c3.794,4.582,5.68,7.1,9.289,11.091
					c4.643,5.134,8.119,7.988,11.431,10.203c3.313,2.216,6.498,1.559,9.212,2.304l-0.335,5.573c-0.246,0.429,0.243,0.898,0.67,1.146
					c3.676,2.141,7.611,3.84,11.69,5.046c1.388,0.411,3.046,1.026,3.295,2.452c0.207,1.183-0.857,2.104-1.69,2.969
					c-3.01,3.125-8.191,3.948-12.286,3.125c-3.538-0.711-7.404-2.96-10.456-5.008c-3.229-2.166-5.706-4.87-8.125-6.824
					c-3.397-2.745-15.006-12.393-19.656-16.606c-2.694-2.441-6.572-5.937-8.444-7.882
					C272.741,174.227,271.396,171.556,277.296,163.713z"/>
			</g>
		</g>
		<g id="Exclamation_Marks">
			<g>
				<path style="fill:#27DEBF;" d="M290.779,63.065c-0.013-0.288,0.079-0.542,0.28-0.762c0.201-0.218,0.445-0.334,0.732-0.347
					l4.953-0.224c0.289-0.013,0.542,0.081,0.76,0.279c0.22,0.202,0.336,0.446,0.349,0.734l0.179,3.969
					c0.013,0.289-0.08,0.543-0.282,0.76c-0.199,0.221-0.442,0.336-0.731,0.349l-4.953,0.224c-0.287,0.013-0.541-0.08-0.761-0.281
					c-0.219-0.199-0.335-0.443-0.348-0.732L290.779,63.065z M289.809,41.643c-0.013-0.287,0.08-0.541,0.28-0.76
					c0.201-0.22,0.445-0.336,0.732-0.349l4.953-0.224c0.289-0.013,0.542,0.081,0.76,0.281c0.221,0.201,0.336,0.445,0.349,0.732
					l0.767,16.942c0.013,0.288-0.08,0.542-0.281,0.76c-0.2,0.22-0.443,0.335-0.732,0.348l-4.953,0.224
					c-0.287,0.013-0.541-0.08-0.76-0.28c-0.22-0.2-0.335-0.444-0.348-0.732L289.809,41.643z"/>
			</g>
			<g>
				<path style="fill:#27DEBF;" d="M280.385,78.037c-0.16-0.24-0.21-0.506-0.151-0.797c0.06-0.292,0.209-0.517,0.449-0.675
					l4.133-2.739c0.242-0.16,0.507-0.21,0.796-0.15c0.293,0.06,0.517,0.208,0.676,0.448l2.196,3.313
					c0.16,0.242,0.21,0.505,0.15,0.797c-0.058,0.29-0.208,0.515-0.449,0.675l-4.133,2.739c-0.24,0.16-0.505,0.21-0.796,0.151
					c-0.291-0.058-0.516-0.208-0.675-0.448L280.385,78.037z M268.538,60.164c-0.159-0.24-0.209-0.506-0.151-0.797
					c0.059-0.292,0.208-0.517,0.448-0.675l4.133-2.739c0.241-0.16,0.507-0.21,0.797-0.151c0.293,0.058,0.517,0.208,0.676,0.448
					l9.369,14.136c0.16,0.24,0.211,0.505,0.15,0.797c-0.058,0.29-0.207,0.515-0.449,0.675l-4.133,2.739
					c-0.24,0.158-0.505,0.208-0.796,0.151c-0.29-0.06-0.515-0.208-0.674-0.45L268.538,60.164z"/>
			</g>
			<g style="opacity:0.6;">
				<path style="fill:#FFFFFF;" d="M280.385,78.037c-0.16-0.24-0.21-0.506-0.151-0.797c0.06-0.292,0.209-0.517,0.449-0.675
					l4.133-2.739c0.242-0.16,0.507-0.21,0.796-0.15c0.293,0.06,0.517,0.208,0.676,0.448l2.196,3.313
					c0.16,0.242,0.21,0.505,0.15,0.797c-0.058,0.29-0.208,0.515-0.449,0.675l-4.133,2.739c-0.24,0.16-0.505,0.21-0.796,0.151
					c-0.291-0.058-0.516-0.208-0.675-0.448L280.385,78.037z M268.538,60.164c-0.159-0.24-0.209-0.506-0.151-0.797
					c0.059-0.292,0.208-0.517,0.448-0.675l4.133-2.739c0.241-0.16,0.507-0.21,0.797-0.151c0.293,0.058,0.517,0.208,0.676,0.448
					l9.369,14.136c0.16,0.24,0.211,0.505,0.15,0.797c-0.058,0.29-0.207,0.515-0.449,0.675l-4.133,2.739
					c-0.24,0.158-0.505,0.208-0.796,0.151c-0.29-0.06-0.515-0.208-0.674-0.45L268.538,60.164z"/>
			</g>
		</g>
	</g>
</g>
</svg>
